<svg xmlns="http://www.w3.org/2000/svg" xmlns:xlink="http://www.w3.org/1999/xlink" version="1.1" x="0px" y="0px" viewBox="0 0 195 243.75" enable-background="new 0 0 195 195" xml:space="preserve"><g><path d="M53,118.7c27.9,0,50.4-22.7,50.4-50.4c0-0.9,0-2.1-0.2-3l17.1-19.5l23,21.1c0.5,0.5,0.9,0.7,1.6,0.5c0.5,0,1.2-0.2,1.4-0.7   l25.1-27.9l5.6,5.2c0.5,0.5,0.9,0.5,1.4,0.5c0.2,0,0.5,0,0.5,0c0.7-0.2,1.2-0.7,1.4-1.4l5.9-20.2c0.2-0.7,0-1.6-0.5-2.1   s-1.4-0.7-2.1-0.5L163.4,27c-0.7,0.2-1.2,0.9-1.4,1.6c-0.2,0.7,0,1.4,0.7,2.1l5.6,5.2l-23.7,26.5l-23-21.1   c-0.5-0.5-0.9-0.5-1.6-0.5c-0.5,0-1.2,0.2-1.4,0.7l-16.2,18.3c-4.2-23.7-24.9-41.7-49.7-41.7C25.1,17.9,2.6,40.4,2.6,68.3   S25.1,118.7,53,118.7z M181.3,25.6l-3.8,12.9l-9.1-8.4L181.3,25.6z M98,68.3c0,13.6-6.1,25.8-15.7,34l-26-33.8l29.1-31.4   C93.1,45.1,98,56.1,98,68.3z M55.6,23.3c9.8,0.5,19,4.2,26.3,10.3L55.6,61.7C55.6,61.7,55.6,23.3,55.6,23.3z M50.4,23.3v45l0,0v0.2   c0,0.2,0,0.5,0.2,0.7c0,0,0,0.2,0.2,0.2c0,0,0,0.2,0.2,0.2l27.4,35.6c-7.3,4.9-15.9,8-25.3,8c-24.9,0-45-20.2-45-45   C8,44.4,26.7,24.7,50.4,23.3z"/><rect x="101.8" y="93.9" width="15.7" height="22"/><rect x="122.6" y="69.9" width="15.7" height="46"/><rect x="143.5" y="75.1" width="15.7" height="40.8"/><rect x="164.4" y="55.9" width="15.7" height="60"/><path d="M48.5,154.8h-8.7v-8.7c0-2.6-2.1-4.5-4.5-4.5c-2.6,0-4.5,2.1-4.5,4.5v8.7h-8.7c-2.6,0-4.5,2.1-4.5,4.5   c0,2.3,2.1,4.5,4.5,4.5H31v8.7c0,2.6,2.1,4.5,4.5,4.5c2.6,0,4.5-2.1,4.5-4.5v-8.7h8.7c2.6,0,4.5-2.1,4.5-4.5   C53,156.9,51.1,154.8,48.5,154.8z"/><path d="M91.9,154.8H66.8c-2.6,0-4.5,2.1-4.5,4.5c0,2.3,2.1,4.5,4.5,4.5h25.1c2.6,0,4.5-2.1,4.5-4.5   C96.4,156.9,94.5,154.8,91.9,154.8z"/><path d="M180.1,154.8h-24.9c-2.6,0-4.5,2.1-4.5,4.5c0,2.3,2.1,4.5,4.5,4.5h24.9c2.6,0,4.5-2.1,4.5-4.5   C184.5,156.9,182.7,154.8,180.1,154.8z"/><circle cx="167.7" cy="148" r="4.7"/><circle cx="167.7" cy="170.5" r="4.7"/><path d="M136.9,145.7c-1.6-1.6-4.7-1.6-6.3,0l-7,7l-7-7c-1.6-1.6-4.7-1.6-6.3,0c-1.6,1.6-1.6,4.7,0,6.3l7,7l-7,7   c-1.6,1.6-1.6,4.7,0,6.3c0.9,0.9,2.1,1.4,3,1.4c1.2,0,2.3-0.5,3-1.4l7-7l7,7c0.9,0.9,2.1,1.4,3,1.4s2.3-0.5,3-1.4   c1.6-1.6,1.6-4.7,0-6.3l-7-7l7-7C138.8,150.4,138.8,147.6,136.9,145.7z"/><path d="M187.8,127.6H14.3c-1.4,0-2.3,1.2-2.3,2.3s1.2,2.3,2.3,2.3h173.5c1.4,0,2.3-1.2,2.3-2.3S189.2,127.6,187.8,127.6z"/></g><text x="0" y="210" fill="#000000" font-size="5px" font-weight="bold" font-family="'Helvetica Neue', Helvetica, Arial-Unicode, Arial, Sans-serif">Created by Kevin Augustine LO</text><text x="0" y="215" fill="#000000" font-size="5px" font-weight="bold" font-family="'Helvetica Neue', Helvetica, Arial-Unicode, Arial, Sans-serif">from the Noun Project</text></svg>