<svg xmlns="http://www.w3.org/2000/svg" xmlns:xlink="http://www.w3.org/1999/xlink" version="1.1" x="0px" y="0px" viewBox="0 0 90 112.5" enable-background="new 0 0 90 90" xml:space="preserve"><g><path d="M23.084,36.702l-4.104-2.198c-0.333-0.178-0.756,0.034-0.94,0.472l-4.158,9.91c-0.184,0.438-0.062,0.942,0.271,1.121   l1.977,1.059l-1.944,8.082c-0.109,0.454,0.061,0.546,0.379,0.203l8.494-9.169c0.318-0.343,0.305-0.769-0.028-0.948l-3.535-1.893   l3.714-5.596C23.474,37.35,23.417,36.881,23.084,36.702z"/><path d="M76.054,36.702l-4.104-2.198c-0.333-0.178-0.756,0.034-0.94,0.472l-4.158,9.91c-0.184,0.438-0.062,0.942,0.271,1.121   l1.977,1.059l-1.944,8.082c-0.109,0.454,0.061,0.546,0.379,0.203l8.494-9.169c0.318-0.343,0.305-0.769-0.028-0.948l-3.535-1.893   l3.714-5.596C76.444,37.35,76.387,36.881,76.054,36.702z"/><path d="M80.432,18.694H9.568c-3.552,0-6.442,2.89-6.442,6.442v39.727c0,3.552,2.89,6.442,6.442,6.442h70.863   c3.552,0,6.442-2.89,6.442-6.442V25.136C86.874,21.584,83.984,18.694,80.432,18.694z M81.72,64.864c0,0.71-0.578,1.288-1.288,1.288   H9.568c-0.71,0-1.288-0.578-1.288-1.288V25.136c0-0.71,0.578-1.288,1.288-1.288h70.863c0.71,0,1.288,0.578,1.288,1.288V64.864z"/><path d="M45,24.607c-9.048,0-16.409,9.148-16.409,20.393S35.952,65.393,45,65.393S61.409,56.245,61.409,45S54.048,24.607,45,24.607   z M57.973,45c0,0.579-0.023,1.152-0.067,1.716l-14.995,15c-0.694-0.148-1.37-0.36-2.022-0.646l17.046-17.051   C57.949,44.345,57.973,44.669,57.973,45z M39.444,60.3c-0.535-0.333-1.053-0.703-1.544-1.125l19.426-19.432   c0.182,0.727,0.323,1.475,0.428,2.241L39.444,60.3z M36.768,58.095c-0.423-0.456-0.816-0.956-1.192-1.477l20.466-20.473   c0.287,0.609,0.547,1.239,0.774,1.895L36.768,58.095z M34.704,55.276c-0.329-0.562-0.632-1.149-0.906-1.763l20.42-20.426   c0.381,0.504,0.73,1.046,1.06,1.609L34.704,55.276z M44.587,28.071c0.138-0.006,0.274-0.027,0.413-0.027   c0.699,0,1.38,0.093,2.05,0.233L32.098,43.232c0.087-1.088,0.255-2.144,0.492-3.161L44.587,28.071z M33.658,36.789   c1.728-4.061,4.696-7.088,8.229-8.232L33.658,36.789z M48.763,28.776c0.61,0.242,1.195,0.553,1.764,0.905L32.24,47.974   c-0.11-0.807-0.174-1.634-0.193-2.476L48.763,28.776z M51.819,30.602c0.483,0.392,0.951,0.811,1.389,1.28L33.171,51.926   c-0.231-0.67-0.432-1.36-0.596-2.073L51.819,30.602z M44.891,61.95l12.642-12.646c-0.27,1.343-0.651,2.628-1.151,3.82l-8.34,8.343   c-0.978,0.309-1.993,0.49-3.042,0.49C44.963,61.957,44.927,61.95,44.891,61.95z"/></g><text x="0" y="105" fill="#000000" font-size="5px" font-weight="bold" font-family="'Helvetica Neue', Helvetica, Arial-Unicode, Arial, Sans-serif">Created by Nate Eul</text><text x="0" y="110" fill="#000000" font-size="5px" font-weight="bold" font-family="'Helvetica Neue', Helvetica, Arial-Unicode, Arial, Sans-serif">from the Noun Project</text></svg>