<svg xmlns="http://www.w3.org/2000/svg" xmlns:xlink="http://www.w3.org/1999/xlink" version="1.1" x="0px" y="0px" viewBox="0 0 100 125" enable-background="new 0 0 100 100" xml:space="preserve"><g display="none"><line display="inline" fill="none" stroke="#000000" stroke-width="3" stroke-linecap="round" x1="50" y1="38" x2="50" y2="72"/><path display="inline" fill="none" stroke="#000000" stroke-width="3" stroke-linecap="round" d="M43.5,64.2c0.7,1,2.9,2.8,6.5,2.8   c3.8,0,6.5-2.6,6.5-5.5c0-7.2-13-5.6-13-13c0-2.9,2.7-5.5,6.5-5.5c3.6,0,5.7,1.7,6.5,2.8"/></g><g display="none"><path display="inline" d="M58,61.5c0-4.2-3.4-6-6.5-7.4v-9.4c2,0.4,3.3,1.4,3.7,2c0.5,0.7,1.4,0.8,2.1,0.4c0.7-0.5,0.8-1.4,0.4-2.1   c-1-1.4-3.1-2.9-6.2-3.3V38c0-0.8-0.7-1.5-1.5-1.5s-1.5,0.7-1.5,1.5v3.6C44.8,42.2,42,45,42,48.5c0,4.3,3.4,6.2,6.5,7.5v9.3   c-2.1-0.4-3.3-1.4-3.8-2c-0.5-0.7-1.4-0.9-2.1-0.4c-0.7,0.5-0.9,1.4-0.4,2.1c0.9,1.4,3.1,3,6.2,3.4V72c0,0.8,0.7,1.5,1.5,1.5   s1.5-0.7,1.5-1.5v-3.6C55.2,67.8,58,65,58,61.5z M45,48.5c0-1.6,1.3-3.3,3.5-3.8v8C46.3,51.6,45,50.5,45,48.5z M51.5,65.3v-7.9   c2.2,1.1,3.5,2.1,3.5,4.1C55,63.1,53.7,64.8,51.5,65.3z"/><path display="inline" d="M50.1,77c0-0.8,0.6-1.5,1.4-1.6l0,0c0.8-0.1,1.5,0.6,1.6,1.4l0,0c0.1,0.8-0.6,1.5-1.4,1.6l0,0   c0,0-0.1,0-0.1,0l0,0C50.8,78.4,50.1,77.8,50.1,77z M45.3,78c-0.8-0.2-1.3-1-1.2-1.8l0,0c0.2-0.8,1-1.3,1.8-1.2l0,0   c0.8,0.2,1.3,1,1.2,1.8l0,0c-0.1,0.7-0.8,1.2-1.5,1.2l0,0C45.5,78.1,45.4,78,45.3,78z M56,76.2c-0.3-0.8,0.1-1.6,0.9-1.9l0,0   c0.8-0.3,1.6,0.1,1.9,0.9l0,0c0.3,0.8-0.1,1.6-0.9,1.9l0,0c-0.2,0.1-0.3,0.1-0.5,0.1l0,0C56.8,77.2,56.2,76.8,56,76.2z M39.3,75.9   c-0.7-0.4-1-1.3-0.6-2l0,0c0.4-0.7,1.3-1,2-0.6l0,0c0.7,0.4,1,1.3,0.6,2l0,0c-0.3,0.5-0.8,0.8-1.3,0.8l0,0   C39.7,76.1,39.5,76,39.3,75.9z M61.5,73.8c-0.5-0.7-0.3-1.6,0.3-2.1l0,0c0.7-0.5,1.6-0.3,2.1,0.3l0,0c0.5,0.7,0.3,1.6-0.4,2.1l0,0   l0,0l0,0c-0.3,0.2-0.6,0.3-0.9,0.3l0,0C62.3,74.4,61.8,74.2,61.5,73.8z M34,72.2c-0.6-0.6-0.6-1.5-0.1-2.1l0,0   c0.6-0.6,1.5-0.6,2.1-0.1l0,0c0.6,0.6,0.6,1.5,0.1,2.1l0,0c-0.3,0.3-0.7,0.5-1.1,0.5l0,0C34.7,72.6,34.3,72.5,34,72.2z M66.2,70   c-0.7-0.5-0.8-1.5-0.2-2.1h0c0.5-0.6,1.5-0.8,2.1-0.2l0,0c0.6,0.5,0.7,1.5,0.2,2.1l0,0l0,0l0,0c-0.3,0.4-0.7,0.5-1.2,0.5l0,0   C66.8,70.3,66.4,70.2,66.2,70z M30,67.3c-0.4-0.7-0.2-1.6,0.5-2.1l0,0c0.7-0.4,1.6-0.2,2.1,0.5l0,0c0.4,0.7,0.2,1.6-0.5,2.1l0,0   c-0.2,0.1-0.5,0.2-0.8,0.2l0,0C30.7,68,30.2,67.8,30,67.3z M69.6,65.1c-0.8-0.3-1.1-1.2-0.8-2l0,0c0.3-0.8,1.2-1.1,2-0.8l0,0   c0.8,0.3,1.1,1.2,0.8,2l0,0l0,0l0,0c-0.2,0.6-0.8,0.9-1.4,0.9l0,0C70,65.2,69.8,65.2,69.6,65.1z M27.4,61.4c-0.2-0.8,0.2-1.6,1-1.8   l0,0c0.8-0.2,1.6,0.2,1.9,1l0,0c0.2,0.8-0.2,1.6-1,1.9l0,0c-0.1,0-0.3,0.1-0.4,0.1l0,0C28.2,62.5,27.6,62.1,27.4,61.4z M71.6,59.4   c-0.8-0.1-1.4-0.9-1.3-1.7l0,0c0.1-0.8,0.9-1.4,1.7-1.3l0,0c0.8,0.1,1.4,0.9,1.3,1.7l0,0c-0.1,0.8-0.8,1.3-1.5,1.3l0,0   C71.7,59.5,71.7,59.4,71.6,59.4z M26.5,55.1C26.5,55.1,26.5,55.1,26.5,55.1L26.5,55.1C26.5,55,26.5,55,26.5,55.1L26.5,55.1   L26.5,55.1L26.5,55.1c0-0.9,0.7-1.6,1.5-1.6l0,0c0.8,0,1.5,0.7,1.5,1.5l0,0c0,0,0,0,0,0l0,0c0,0,0,0,0,0v0c0,0.8-0.7,1.5-1.5,1.5   l0,0C27.2,56.6,26.5,55.9,26.5,55.1z M26.5,55.1L26.5,55.1L26.5,55.1L26.5,55.1L26.5,55.1L26.5,55.1z M70.3,52.2   c-0.1-0.8,0.5-1.6,1.3-1.7l0,0c0.8-0.1,1.6,0.5,1.7,1.3l0,0l0,0l0,0c0.1,0.8-0.5,1.6-1.3,1.7l0,0c-0.1,0-0.1,0-0.2,0l0,0   C71,53.5,70.4,52.9,70.3,52.2z M28.4,50.5c-0.8-0.2-1.3-1-1-1.9l0,0c0,0,0,0,0,0l0,0c0.2-0.8,1-1.3,1.8-1l0,0   c0.8,0.2,1.3,1.1,1,1.9l0,0c-0.2,0.7-0.8,1.1-1.4,1.1l0,0C28.7,50.6,28.5,50.5,28.4,50.5z M68.8,46.8L68.8,46.8   c-0.3-0.8,0-1.6,0.8-2l0,0c0.8-0.3,1.7,0,2,0.8l0,0c0.3,0.8,0,1.6-0.8,2l0,0c-0.2,0.1-0.4,0.1-0.6,0.1l0,0   C69.6,47.7,69,47.4,68.8,46.8z M30.4,44.8c-0.7-0.4-0.9-1.3-0.5-2.1l0,0c0,0,0,0,0,0l0,0c0.4-0.7,1.4-0.9,2.1-0.5l0,0   c0.7,0.4,0.9,1.4,0.5,2.1l0,0c-0.3,0.5-0.8,0.7-1.3,0.7l0,0C30.9,45.1,30.7,45,30.4,44.8z M65.9,42c-0.5-0.6-0.4-1.6,0.2-2.1l0,0   c0.6-0.5,1.6-0.4,2.1,0.2l0,0c0.5,0.6,0.4,1.6-0.2,2.1l0,0c-0.3,0.2-0.6,0.3-1,0.3l0,0C66.6,42.6,66.2,42.4,65.9,42z M33.9,39.9   c-0.6-0.6-0.5-1.5,0.1-2.1l0,0c0.6-0.6,1.6-0.5,2.1,0.1l0,0c0.6,0.6,0.5,1.6-0.1,2.1l0,0c-0.3,0.3-0.7,0.4-1,0.4l0,0   C34.6,40.4,34.2,40.3,33.9,39.9z M61.8,38.2c-0.7-0.5-0.8-1.4-0.4-2.1l0,0c0.5-0.7,1.4-0.8,2.1-0.4l0,0c0.7,0.5,0.8,1.4,0.4,2.1   l0,0c-0.3,0.4-0.8,0.6-1.2,0.6l0,0C62.4,38.5,62.1,38.4,61.8,38.2z M38.5,36.2c-0.4-0.7-0.1-1.6,0.6-2l0,0c0.7-0.4,1.6-0.1,2,0.6   l0,0c0.4,0.7,0.1,1.6-0.6,2l0,0c-0.2,0.1-0.5,0.2-0.7,0.2l0,0C39.3,37,38.8,36.7,38.5,36.2z M56.8,35.7c-0.8-0.3-1.2-1.1-0.9-1.9   l0,0c0.3-0.8,1.1-1.2,1.9-0.9l0,0c0.8,0.3,1.2,1.1,0.9,1.9l0,0c-0.2,0.6-0.8,1-1.4,1l0,0C57.2,35.8,57,35.7,56.8,35.7z M44,33.8   c-0.2-0.8,0.3-1.6,1.2-1.8l0,0c0.8-0.2,1.6,0.4,1.8,1.2l0,0c0.2,0.8-0.4,1.6-1.2,1.8l0,0c-0.1,0-0.2,0-0.3,0l0,0   C44.8,35,44.2,34.5,44,33.8z M51.4,34.5L51.4,34.5c-0.8-0.1-1.5-0.8-1.4-1.6l0,0c0-0.8,0.8-1.4,1.6-1.4l0,0c0,0,0,0,0,0l0,0   c0.8,0,1.5,0.8,1.4,1.6l0,0C52.9,33.9,52.3,34.5,51.4,34.5L51.4,34.5C51.4,34.5,51.4,34.5,51.4,34.5z"/><path display="inline" d="M50,83.5c-15.7,0-28.5-12.8-28.5-28.5S34.3,26.5,50,26.5S78.5,39.3,78.5,55S65.7,83.5,50,83.5z M50,29.5   c-14.1,0-25.5,11.4-25.5,25.5S35.9,80.5,50,80.5S75.5,69.1,75.5,55S64.1,29.5,50,29.5z"/></g><g display="none"><path display="inline" d="M53,56.5c0-4.2-3.4-6-6.5-7.4v-9.4c2,0.4,3.3,1.4,3.7,2c0.5,0.7,1.4,0.8,2.1,0.4c0.7-0.5,0.8-1.4,0.4-2.1   c-1-1.4-3.1-2.9-6.2-3.3V33c0-0.8-0.7-1.5-1.5-1.5s-1.5,0.7-1.5,1.5v3.6C39.8,37.2,37,40,37,43.5c0,4.3,3.4,6.2,6.5,7.5v9.3   c-2.1-0.4-3.3-1.4-3.8-2c-0.5-0.7-1.4-0.9-2.1-0.4c-0.7,0.5-0.9,1.4-0.4,2.1c0.9,1.4,3.1,3,6.2,3.4V67c0,0.8,0.7,1.5,1.5,1.5   s1.5-0.7,1.5-1.5v-3.6C50.2,62.8,53,60,53,56.5z M40,43.5c0-1.6,1.3-3.3,3.5-3.8v8C41.3,46.6,40,45.5,40,43.5z M46.5,60.3v-7.9   c2.2,1.1,3.5,2.1,3.5,4.1C50,58.1,48.7,59.8,46.5,60.3z"/><g display="inline"><path d="M51.1,84.6c-1,0-2-0.1-3-0.2c-0.8-0.1-1.4-0.8-1.3-1.6c0.1-0.8,0.8-1.4,1.6-1.3c0.9,0.1,1.8,0.1,2.7,0.1    c14,0,25.5-11.4,25.5-25.5c0-1-0.1-2-0.2-2.9c-0.1-0.8,0.5-1.6,1.3-1.7c0.8-0.1,1.6,0.5,1.7,1.3c0.1,1.1,0.2,2.2,0.2,3.3    C79.6,71.8,66.8,84.6,51.1,84.6z"/></g><g display="inline"><path d="M57.3,90.7c-1,0-2-0.1-3-0.2c-0.8-0.1-1.4-0.8-1.3-1.7s0.8-1.4,1.7-1.3c0.9,0.1,1.8,0.1,2.7,0.1c14,0,25.5-11.4,25.5-25.5    c0-1-0.1-1.9-0.2-2.9c-0.1-0.8,0.5-1.6,1.3-1.7c0.8-0.1,1.6,0.5,1.7,1.3c0.1,1.1,0.2,2.2,0.2,3.3C85.7,78,73,90.7,57.3,90.7z"/></g><path display="inline" d="M45.1,72c-0.1-0.8,0.6-1.5,1.4-1.6l0,0c0.8-0.1,1.5,0.6,1.6,1.4l0,0c0,0.8-0.6,1.5-1.4,1.6l0,0   c0,0-0.1,0-0.1,0l0,0C45.8,73.4,45.1,72.8,45.1,72z M40.3,73c-0.8-0.2-1.3-1-1.2-1.8l0,0c0.2-0.8,1-1.3,1.8-1.2l0,0   c0.8,0.2,1.3,1,1.2,1.8l0,0c-0.1,0.7-0.8,1.2-1.5,1.2l0,0C40.5,73.1,40.4,73,40.3,73z M51,71.2c-0.3-0.8,0.1-1.6,0.9-1.9l0,0   c0.8-0.3,1.6,0.1,1.9,0.9l0,0c0.3,0.8-0.1,1.6-0.9,1.9l0,0c-0.2,0.1-0.3,0.1-0.5,0.1l0,0C51.8,72.2,51.2,71.8,51,71.2z M34.3,70.9   c-0.7-0.4-1-1.3-0.6-2l0,0c0.4-0.7,1.3-1,2-0.6l0,0c0.7,0.4,1,1.3,0.6,2l0,0c-0.3,0.5-0.8,0.8-1.3,0.8l0,0   C34.7,71.1,34.5,71,34.3,70.9z M56.5,68.8c-0.5-0.7-0.3-1.6,0.4-2.1h0c0.7-0.5,1.6-0.3,2.1,0.3l0,0c0.5,0.7,0.3,1.6-0.4,2.1l0,0   l0,0l0,0c-0.3,0.2-0.6,0.3-0.9,0.3l0,0C57.3,69.4,56.8,69.2,56.5,68.8z M29,67.2c-0.6-0.6-0.6-1.5-0.1-2.1l0,0   c0.6-0.6,1.5-0.6,2.1-0.1l0,0c0.6,0.6,0.6,1.5,0.1,2.1l0,0c-0.3,0.3-0.7,0.5-1.1,0.5l0,0C29.7,67.6,29.3,67.5,29,67.2z M61.2,65   c-0.7-0.5-0.8-1.5-0.2-2.1h0c0.5-0.6,1.5-0.8,2.1-0.2l0,0c0.6,0.5,0.7,1.5,0.2,2.1l0,0c0,0,0,0,0,0l0,0c-0.3,0.4-0.7,0.6-1.2,0.6   l0,0C61.8,65.3,61.4,65.2,61.2,65z M25,62.3c-0.4-0.7-0.2-1.6,0.5-2.1l0,0c0.7-0.4,1.6-0.2,2.1,0.5l0,0c0.4,0.7,0.2,1.6-0.5,2.1   l0,0c-0.2,0.1-0.5,0.2-0.8,0.2l0,0C25.7,63,25.2,62.8,25,62.3z M64.6,60.1c-0.8-0.3-1.1-1.2-0.8-2l0,0c0.3-0.8,1.2-1.1,2-0.8l0,0   c0.8,0.3,1.1,1.2,0.8,2l0,0l0,0l0,0c-0.2,0.6-0.8,0.9-1.4,0.9l0,0C65,60.2,64.8,60.2,64.6,60.1z M22.4,56.4c-0.2-0.8,0.2-1.6,1-1.8   l0,0c0.8-0.2,1.6,0.2,1.9,1l0,0c0.2,0.8-0.2,1.6-1,1.9l0,0c-0.1,0-0.3,0.1-0.4,0.1l0,0C23.2,57.5,22.6,57.1,22.4,56.4z M66.6,54.4   c-0.8-0.1-1.4-0.9-1.3-1.7l0,0c0.1-0.8,0.9-1.4,1.7-1.3l0,0c0.8,0.1,1.4,0.9,1.3,1.7l0,0c-0.1,0.8-0.8,1.3-1.5,1.3l0,0   C66.7,54.5,66.7,54.4,66.6,54.4z M21.5,50.1C21.5,50.1,21.5,50.1,21.5,50.1L21.5,50.1C21.5,50,21.5,50,21.5,50.1L21.5,50.1   c0-0.9,0.7-1.6,1.5-1.6l0,0c0.8,0,1.5,0.7,1.5,1.5l0,0c0,0,0,0,0,0l0,0c0,0,0,0,0,0v0c0,0.8-0.7,1.5-1.5,1.5l0,0c0,0,0,0,0,0l0,0   C22.2,51.6,21.5,50.9,21.5,50.1z M21.5,50.1L21.5,50.1L21.5,50.1L21.5,50.1L21.5,50.1L21.5,50.1z M65.3,47.2L65.3,47.2   c-0.1-0.8,0.5-1.6,1.3-1.7l0,0c0.8-0.1,1.6,0.5,1.7,1.3l0,0c0.1,0.8-0.5,1.6-1.3,1.7l0,0c-0.1,0-0.1,0-0.2,0l0,0   C66,48.5,65.4,47.9,65.3,47.2z M23.4,45.5c-0.8-0.2-1.3-1-1-1.9l0,0c0.2-0.8,1.1-1.3,1.9-1l0,0c0.8,0.2,1.3,1.1,1,1.9l0,0   c-0.2,0.7-0.8,1.1-1.4,1.1l0,0C23.7,45.6,23.5,45.5,23.4,45.5z M63.8,41.8L63.8,41.8c-0.3-0.8,0-1.6,0.8-2l0,0c0.8-0.3,1.6,0,2,0.8   l0,0c0,0,0,0,0,0l0,0c0.3,0.8,0,1.6-0.8,2l0,0c-0.2,0.1-0.4,0.1-0.6,0.1l0,0C64.6,42.7,64,42.4,63.8,41.8z M25.4,39.8   c-0.7-0.4-0.9-1.3-0.5-2.1l0,0c0.4-0.7,1.4-0.9,2.1-0.5l0,0c0.7,0.4,0.9,1.4,0.5,2.1l0,0c-0.3,0.5-0.8,0.7-1.3,0.7l0,0   C25.9,40.1,25.7,40,25.4,39.8z M60.9,37L60.9,37c-0.5-0.6-0.4-1.6,0.2-2.1l0,0c0.7-0.5,1.6-0.4,2.1,0.2l0,0   c0.5,0.6,0.4,1.6-0.2,2.1l0,0c-0.3,0.2-0.6,0.3-1,0.3l0,0C61.6,37.6,61.2,37.4,60.9,37z M28.9,34.9c-0.6-0.6-0.5-1.5,0.1-2.1l0,0   c0.6-0.6,1.6-0.5,2.1,0.1l0,0c0.6,0.6,0.5,1.6-0.1,2.1l0,0c-0.3,0.3-0.7,0.4-1,0.4l0,0C29.6,35.4,29.2,35.3,28.9,34.9z M56.8,33.2   c-0.7-0.5-0.8-1.4-0.4-2.1l0,0c0.5-0.7,1.4-0.8,2.1-0.4l0,0c0.7,0.5,0.8,1.4,0.4,2.1l0,0c-0.3,0.4-0.8,0.6-1.2,0.6l0,0   C57.4,33.5,57.1,33.4,56.8,33.2z M33.5,31.2c-0.4-0.7-0.1-1.6,0.6-2l0,0c0.7-0.4,1.6-0.1,2,0.6l0,0c0.4,0.7,0.1,1.6-0.6,2h0   c-0.2,0.1-0.5,0.2-0.7,0.2l0,0C34.3,32,33.8,31.7,33.5,31.2z M51.8,30.7L51.8,30.7c-0.8-0.3-1.2-1.1-0.9-1.9l0,0   c0.3-0.8,1.1-1.2,1.9-0.9l0,0c0.8,0.3,1.2,1.1,0.9,1.9l0,0c-0.2,0.6-0.8,1-1.4,1l0,0C52.2,30.8,52,30.7,51.8,30.7z M39,28.8   c-0.2-0.8,0.3-1.6,1.2-1.8l0,0c0.8-0.2,1.6,0.4,1.8,1.2l0,0c0.2,0.8-0.4,1.6-1.2,1.8l0,0c-0.1,0-0.2,0-0.3,0l0,0   C39.8,30,39.2,29.5,39,28.8z M46.4,29.5L46.4,29.5c-0.8-0.1-1.5-0.8-1.4-1.6l0,0c0.1-0.8,0.8-1.4,1.6-1.4l0,0   c0.8,0.1,1.5,0.8,1.4,1.6l0,0c-0.1,0.8-0.7,1.4-1.5,1.4l0,0C46.4,29.5,46.4,29.5,46.4,29.5z"/><path display="inline" d="M45,78.5c-15.7,0-28.5-12.8-28.5-28.5S29.3,21.5,45,21.5S73.5,34.3,73.5,50S60.7,78.5,45,78.5z M45,24.5   c-14.1,0-25.5,11.4-25.5,25.5S30.9,75.5,45,75.5S70.5,64.1,70.5,50S59.1,24.5,45,24.5z"/></g><g display="none"><path display="inline" d="M58,61.5c0-4.2-3.4-6-6.5-7.4v-9.4c2,0.4,3.3,1.4,3.7,2c0.5,0.7,1.4,0.8,2.1,0.4c0.7-0.5,0.8-1.4,0.4-2.1   c-1-1.4-3.1-2.9-6.2-3.3V38c0-0.8-0.7-1.5-1.5-1.5s-1.5,0.7-1.5,1.5v3.6C44.8,42.2,42,45,42,48.5c0,4.3,3.4,6.2,6.5,7.5v9.3   c-2.1-0.4-3.3-1.4-3.8-2c-0.5-0.7-1.4-0.9-2.1-0.4c-0.7,0.5-0.9,1.4-0.4,2.1c0.9,1.4,3.1,3,6.2,3.4V72c0,0.8,0.7,1.5,1.5,1.5   s1.5-0.7,1.5-1.5v-3.6C55.2,67.8,58,65,58,61.5z M45,48.5c0-1.6,1.3-3.3,3.5-3.8v8C46.3,51.6,45,50.5,45,48.5z M51.5,65.3v-7.9   c2.2,1.1,3.5,2.1,3.5,4.1C55,63.1,53.7,64.8,51.5,65.3z"/><path display="inline" d="M88.5,78.2h-77c-0.8,0-1.5-0.7-1.5-1.5V33.2c0-0.8,0.7-1.5,1.5-1.5h77c0.8,0,1.5,0.7,1.5,1.5v43.5   C90,77.6,89.3,78.2,88.5,78.2z M13,75.2h74V34.8H13V75.2z"/><g display="inline"><path d="M29.5,55c0-6.1,2.6-11.5,6.8-15.2H19.5c-0.8,0-1.5,0.7-1.5,1.5v27.5c0,0.8,0.7,1.5,1.5,1.5h16.8    C32.1,66.5,29.5,61.1,29.5,55z"/><path d="M80.5,39.8H63.7c4.2,3.8,6.8,9.2,6.8,15.2s-2.6,11.5-6.8,15.2h16.8c0.8,0,1.5-0.7,1.5-1.5V41.2    C82,40.4,81.3,39.8,80.5,39.8z"/></g></g><g display="none"><path display="inline" d="M53,56.5c0-4.2-3.4-6-6.5-7.4v-9.4c2,0.4,3.3,1.4,3.7,2c0.5,0.7,1.4,0.8,2.1,0.4c0.7-0.5,0.8-1.4,0.4-2.1   c-1-1.4-3.1-2.9-6.2-3.3V33c0-0.8-0.7-1.5-1.5-1.5s-1.5,0.7-1.5,1.5v3.6C39.8,37.2,37,40,37,43.5c0,4.3,3.4,6.2,6.5,7.5v9.3   c-2.1-0.4-3.3-1.4-3.8-2c-0.5-0.7-1.4-0.9-2.1-0.4c-0.7,0.5-0.9,1.4-0.4,2.1c0.9,1.4,3.1,3,6.2,3.4V67c0,0.8,0.7,1.5,1.5,1.5   s1.5-0.7,1.5-1.5v-3.6C50.2,62.8,53,60,53,56.5z M40,43.5c0-1.6,1.3-3.3,3.5-3.8v8C41.3,46.6,40,45.5,40,43.5z M46.5,60.3v-7.9   c2.2,1.1,3.5,2.1,3.5,4.1C50,58.1,48.7,59.8,46.5,60.3z"/><path display="inline" d="M93.5,83.2h-77c-0.8,0-1.5-0.7-1.5-1.5s0.7-1.5,1.5-1.5H92v-42c0-0.8,0.7-1.5,1.5-1.5s1.5,0.7,1.5,1.5   v43.5C95,82.6,94.3,83.2,93.5,83.2z"/><path display="inline" d="M88.5,78.2h-77c-0.8,0-1.5-0.7-1.5-1.5s0.7-1.5,1.5-1.5H87v-42c0-0.8,0.7-1.5,1.5-1.5s1.5,0.7,1.5,1.5   v43.5C90,77.6,89.3,78.2,88.5,78.2z"/><path display="inline" d="M83.5,73.2h-77c-0.8,0-1.5-0.7-1.5-1.5V28.2c0-0.8,0.7-1.5,1.5-1.5h77c0.8,0,1.5,0.7,1.5,1.5v43.5   C85,72.6,84.3,73.2,83.5,73.2z M8,70.2h74V29.8H8V70.2z"/><g display="inline"><path d="M24.5,50c0-6.1,2.6-11.5,6.8-15.2H14.5c-0.8,0-1.5,0.7-1.5,1.5v27.5c0,0.8,0.7,1.5,1.5,1.5h16.8    C27.1,61.5,24.5,56.1,24.5,50z"/><path d="M75.5,34.8H58.7c4.2,3.8,6.8,9.2,6.8,15.2s-2.6,11.5-6.8,15.2h16.8c0.8,0,1.5-0.7,1.5-1.5V36.2    C77,35.4,76.3,34.8,75.5,34.8z"/></g></g><g display="none"><path display="inline" d="M58,61.5c0-4.2-3.4-6-6.5-7.4v-9.4c2,0.4,3.3,1.4,3.7,2c0.5,0.7,1.4,0.8,2.1,0.4c0.7-0.5,0.8-1.4,0.4-2.1   c-1-1.4-3.1-2.9-6.2-3.3V38c0-0.8-0.7-1.5-1.5-1.5s-1.5,0.7-1.5,1.5v3.6C44.8,42.2,42,45,42,48.5c0,4.3,3.4,6.2,6.5,7.5v9.3   c-2.1-0.4-3.3-1.4-3.8-2c-0.5-0.7-1.4-0.9-2.1-0.4c-0.7,0.5-0.9,1.4-0.4,2.1c0.9,1.4,3.1,3,6.2,3.4V72c0,0.8,0.7,1.5,1.5,1.5   s1.5-0.7,1.5-1.5v-3.6C55.2,67.8,58,65,58,61.5z M45,48.5c0-1.6,1.3-3.3,3.5-3.8v8C46.3,51.6,45,50.5,45,48.5z M51.5,65.3v-7.9   c2.2,1.1,3.5,2.1,3.5,4.1C55,63.1,53.7,64.8,51.5,65.3z"/><path display="inline" d="M54.1,27.4c-0.3,0-0.6-0.1-0.9-0.3c-0.7-0.5-0.8-1.4-0.3-2.1l2.8-3.7l-5.5,0.6c-0.1,0-0.2,0-0.3,0   l-5.5-0.6l2.8,3.7c0.5,0.7,0.4,1.6-0.3,2.1c-0.7,0.5-1.6,0.4-2.1-0.3l-4.9-6.5c-0.4-0.5-0.4-1.1-0.1-1.6c0.3-0.5,0.9-0.8,1.5-0.8   l8.8,1l8.8-1c0.6-0.1,1.2,0.2,1.5,0.8s0.3,1.2-0.1,1.6l-4.9,6.5C55,27.2,54.5,27.4,54.1,27.4z"/><path display="inline" d="M50,79c-10.2,0-21.7,0-21.7-14.9C28.3,50.2,38,29,50,29s21.7,21.2,21.7,35.1C71.7,79,60.2,79,50,79z    M50,32c-4.4,0-9.1,4.1-12.9,11.1c-3.5,6.5-5.7,14.7-5.7,20.9C31.3,75.4,38.4,76,50,76s18.7-0.6,18.7-11.9c0-6.3-2.2-14.5-5.7-20.9   C59.1,36.1,54.4,32,50,32z"/></g><g><path d="M58,61.5c0-4.2-3.4-6-6.5-7.4v-9.4c2,0.4,3.3,1.4,3.7,2c0.5,0.7,1.4,0.8,2.1,0.4c0.7-0.5,0.8-1.4,0.4-2.1   c-1-1.4-3.1-2.9-6.2-3.3V38c0-0.8-0.7-1.5-1.5-1.5s-1.5,0.7-1.5,1.5v3.6C44.8,42.2,42,45,42,48.5c0,4.3,3.4,6.2,6.5,7.5v9.3   c-2.1-0.4-3.3-1.4-3.8-2c-0.5-0.7-1.4-0.9-2.1-0.4c-0.7,0.5-0.9,1.4-0.4,2.1c0.9,1.4,3.1,3,6.2,3.4V72c0,0.8,0.7,1.5,1.5,1.5   s1.5-0.7,1.5-1.5v-3.6C55.2,67.8,58,65,58,61.5z M45,48.5c0-1.6,1.3-3.3,3.5-3.8v8C46.3,51.6,45,50.5,45,48.5z M51.5,65.3v-7.9   c2.2,1.1,3.5,2.1,3.5,4.1C55,63.1,53.7,64.8,51.5,65.3z"/><path d="M30,75.5c-0.8,0-1.5-0.7-1.5-1.5V36c0-0.8,0.7-1.5,1.5-1.5s1.5,0.7,1.5,1.5v38C31.5,74.8,30.8,75.5,30,75.5z"/><path d="M20,75.5c-0.8,0-1.5-0.7-1.5-1.5V36c0-0.8,0.7-1.5,1.5-1.5s1.5,0.7,1.5,1.5v38C21.5,74.8,20.8,75.5,20,75.5z"/><path d="M70,75.5c-0.8,0-1.5-0.7-1.5-1.5V36c0-0.8,0.7-1.5,1.5-1.5s1.5,0.7,1.5,1.5v38C71.5,74.8,70.8,75.5,70,75.5z"/><path d="M80,75.5c-0.8,0-1.5-0.7-1.5-1.5V36c0-0.8,0.7-1.5,1.5-1.5s1.5,0.7,1.5,1.5v38C81.5,74.8,80.8,75.5,80,75.5z"/><path d="M83.5,32.5C83.5,32.5,83.5,32.5,83.5,32.5h-67c-0.7,0-1.3-0.5-1.4-1.1c-0.2-0.7,0.1-1.3,0.7-1.7l33.5-20   c0.5-0.3,1.1-0.3,1.5,0l33.4,19.9c0.5,0.2,0.9,0.8,0.9,1.4C85,31.8,84.3,32.5,83.5,32.5z M21.9,29.5h56.1L50,12.7L21.9,29.5z"/><path d="M83.5,80.5h-67c-0.8,0-1.5-0.7-1.5-1.5s0.7-1.5,1.5-1.5h67c0.8,0,1.5,0.7,1.5,1.5S84.3,80.5,83.5,80.5z"/><path d="M88.5,85.5h-77c-0.8,0-1.5-0.7-1.5-1.5s0.7-1.5,1.5-1.5h77c0.8,0,1.5,0.7,1.5,1.5S89.3,85.5,88.5,85.5z"/><path d="M93.5,90.5h-87C5.7,90.5,5,89.8,5,89s0.7-1.5,1.5-1.5h87c0.8,0,1.5,0.7,1.5,1.5S94.3,90.5,93.5,90.5z"/></g><g display="none"><line display="inline" fill="none" stroke="#000000" stroke-width="3" stroke-linecap="round" x1="52.5" y1="37" x2="52.5" y2="71"/><line display="inline" fill="none" stroke="#000000" stroke-width="3" stroke-linecap="round" x1="47.5" y1="37" x2="47.5" y2="71"/><path display="inline" fill="none" stroke="#000000" stroke-width="3" stroke-linecap="round" d="M43.5,63.2c0.7,1,2.9,2.8,6.5,2.8   c3.8,0,6.5-2.6,6.5-5.5c0-7.2-13-5.6-13-13c0-2.9,2.7-5.5,6.5-5.5c3.6,0,5.7,1.7,6.5,2.8"/></g><g display="none"><line display="inline" fill="none" stroke="#000000" stroke-width="3" stroke-linecap="round" x1="50" y1="37" x2="50" y2="42"/><line display="inline" fill="none" stroke="#000000" stroke-width="3" stroke-linecap="round" x1="50" y1="66" x2="50" y2="71"/><path display="inline" fill="none" stroke="#000000" stroke-width="3" stroke-linecap="round" d="M43.5,63.2c0.7,1,2.9,2.8,6.5,2.8   c3.8,0,6.5-2.6,6.5-5.5c0-7.2-13-5.6-13-13c0-2.9,2.7-5.5,6.5-5.5c3.6,0,5.7,1.7,6.5,2.8"/></g><g display="none"><path display="inline" fill="none" stroke="#000000" stroke-width="3" stroke-linecap="round" d="M57.5,62.7   c-1,2.5-3.7,4.3-6.8,4.3h0c-4,0-7.2-2.9-7.2-6.5V49.5c0-3.6,3.2-6.5,7.2-6.5h0c3.1,0,5.8,1.8,6.8,4.4"/><line display="inline" fill="none" stroke="#000000" stroke-width="3" stroke-linecap="round" x1="40.5" y1="52.5" x2="54.5" y2="52.5"/><line display="inline" fill="none" stroke="#000000" stroke-width="3" stroke-linecap="round" x1="40.5" y1="57.5" x2="54.5" y2="57.5"/></g><g display="none"><path display="inline" d="M58,61.3c-0.8-0.3-1.6,0.1-1.9,0.8c-0.8,2-3,3.4-5.4,3.4c-3.1,0-5.7-2.3-5.7-5V59h9.5   c0.8,0,1.5-0.7,1.5-1.5S55.3,56,54.5,56H45v-2h9.5c0.8,0,1.5-0.7,1.5-1.5S55.3,51,54.5,51H45v-1.5c0-2.8,2.6-5,5.7-5   c2.4,0,4.6,1.4,5.4,3.4c0.3,0.8,1.2,1.1,1.9,0.8c0.8-0.3,1.2-1.2,0.8-1.9c-1.2-3.2-4.5-5.3-8.2-5.3c-4.8,0-8.7,3.6-8.7,8V51h-1.5   c-0.8,0-1.5,0.7-1.5,1.5s0.7,1.5,1.5,1.5H42v2h-1.5c-0.8,0-1.5,0.7-1.5,1.5s0.7,1.5,1.5,1.5H42v1.5c0,4.4,3.9,8,8.7,8   c3.6,0,6.9-2.1,8.2-5.3C59.2,62.5,58.8,61.6,58,61.3z"/><path display="inline" d="M50.1,77c0-0.8,0.6-1.5,1.4-1.6l0,0c0.8-0.1,1.5,0.6,1.6,1.4l0,0c0.1,0.8-0.6,1.5-1.4,1.6l0,0   c0,0-0.1,0-0.1,0l0,0C50.8,78.4,50.1,77.8,50.1,77z M45.3,78c-0.8-0.2-1.3-1-1.2-1.8l0,0c0.2-0.8,1-1.3,1.8-1.2l0,0   c0.8,0.2,1.3,1,1.2,1.8l0,0c-0.1,0.7-0.8,1.2-1.5,1.2l0,0C45.5,78.1,45.4,78,45.3,78z M56,76.2c-0.3-0.8,0.1-1.6,0.9-1.9l0,0   c0.8-0.3,1.6,0.1,1.9,0.9l0,0c0.3,0.8-0.1,1.6-0.9,1.9l0,0c-0.2,0.1-0.3,0.1-0.5,0.1l0,0C56.8,77.2,56.2,76.8,56,76.2z M39.3,75.9   c-0.7-0.4-1-1.3-0.6-2l0,0c0.4-0.7,1.3-1,2-0.6l0,0c0.7,0.4,1,1.3,0.6,2l0,0c-0.3,0.5-0.8,0.8-1.3,0.8l0,0   C39.7,76.1,39.5,76,39.3,75.9z M61.5,73.8c-0.5-0.7-0.3-1.6,0.3-2.1l0,0c0.7-0.5,1.6-0.3,2.1,0.3l0,0c0.5,0.7,0.3,1.6-0.4,2.1l0,0   l0,0l0,0c-0.3,0.2-0.6,0.3-0.9,0.3l0,0C62.3,74.4,61.8,74.2,61.5,73.8z M34,72.2c-0.6-0.6-0.6-1.5-0.1-2.1l0,0   c0.6-0.6,1.5-0.6,2.1-0.1l0,0c0.6,0.6,0.6,1.5,0.1,2.1l0,0c-0.3,0.3-0.7,0.5-1.1,0.5l0,0C34.7,72.6,34.3,72.5,34,72.2z M66.2,70   c-0.7-0.5-0.8-1.5-0.2-2.1h0c0.5-0.6,1.5-0.8,2.1-0.2l0,0c0.6,0.5,0.7,1.5,0.2,2.1l0,0l0,0l0,0c-0.3,0.4-0.7,0.5-1.2,0.5l0,0   C66.8,70.3,66.4,70.2,66.2,70z M30,67.3c-0.4-0.7-0.2-1.6,0.5-2.1l0,0c0.7-0.4,1.6-0.2,2.1,0.5l0,0c0.4,0.7,0.2,1.6-0.5,2.1l0,0   c-0.2,0.1-0.5,0.2-0.8,0.2l0,0C30.7,68,30.2,67.8,30,67.3z M69.6,65.1c-0.8-0.3-1.1-1.2-0.8-2l0,0c0.3-0.8,1.2-1.1,2-0.8l0,0   c0.8,0.3,1.1,1.2,0.8,2l0,0l0,0l0,0c-0.2,0.6-0.8,0.9-1.4,0.9l0,0C70,65.2,69.8,65.2,69.6,65.1z M27.4,61.4c-0.2-0.8,0.2-1.6,1-1.8   l0,0c0.8-0.2,1.6,0.2,1.9,1l0,0c0.2,0.8-0.2,1.6-1,1.9l0,0c-0.1,0-0.3,0.1-0.4,0.1l0,0C28.2,62.5,27.6,62.1,27.4,61.4z M71.6,59.4   c-0.8-0.1-1.4-0.9-1.3-1.7l0,0c0.1-0.8,0.9-1.4,1.7-1.3l0,0c0.8,0.1,1.4,0.9,1.3,1.7l0,0c-0.1,0.8-0.8,1.3-1.5,1.3l0,0   C71.7,59.5,71.7,59.4,71.6,59.4z M26.5,55.1C26.5,55.1,26.5,55.1,26.5,55.1L26.5,55.1C26.5,55,26.5,55,26.5,55.1L26.5,55.1   L26.5,55.1L26.5,55.1c0-0.9,0.7-1.6,1.5-1.6l0,0c0.8,0,1.5,0.7,1.5,1.5l0,0c0,0,0,0,0,0l0,0c0,0,0,0,0,0v0c0,0.8-0.7,1.5-1.5,1.5   l0,0C27.2,56.6,26.5,55.9,26.5,55.1z M26.5,55.1L26.5,55.1L26.5,55.1L26.5,55.1L26.5,55.1L26.5,55.1z M70.3,52.2   c-0.1-0.8,0.5-1.6,1.3-1.7l0,0c0.8-0.1,1.6,0.5,1.7,1.3l0,0l0,0l0,0c0.1,0.8-0.5,1.6-1.3,1.7l0,0c-0.1,0-0.1,0-0.2,0l0,0   C71,53.5,70.4,52.9,70.3,52.2z M28.4,50.5c-0.8-0.2-1.3-1-1-1.9l0,0c0,0,0,0,0,0l0,0c0.2-0.8,1-1.3,1.8-1l0,0   c0.8,0.2,1.3,1.1,1,1.9l0,0c-0.2,0.7-0.8,1.1-1.4,1.1l0,0C28.7,50.6,28.5,50.5,28.4,50.5z M68.8,46.8L68.8,46.8   c-0.3-0.8,0-1.6,0.8-2l0,0c0.8-0.3,1.7,0,2,0.8l0,0c0.3,0.8,0,1.6-0.8,2l0,0c-0.2,0.1-0.4,0.1-0.6,0.1l0,0   C69.6,47.7,69,47.4,68.8,46.8z M30.4,44.8c-0.7-0.4-0.9-1.3-0.5-2.1l0,0c0,0,0,0,0,0l0,0c0.4-0.7,1.4-0.9,2.1-0.5l0,0   c0.7,0.4,0.9,1.4,0.5,2.1l0,0c-0.3,0.5-0.8,0.7-1.3,0.7l0,0C30.9,45.1,30.7,45,30.4,44.8z M65.9,42c-0.5-0.6-0.4-1.6,0.2-2.1l0,0   c0.6-0.5,1.6-0.4,2.1,0.2l0,0c0.5,0.6,0.4,1.6-0.2,2.1l0,0c-0.3,0.2-0.6,0.3-1,0.3l0,0C66.6,42.6,66.2,42.4,65.9,42z M33.9,39.9   c-0.6-0.6-0.5-1.5,0.1-2.1l0,0c0.6-0.6,1.6-0.5,2.1,0.1l0,0c0.6,0.6,0.5,1.6-0.1,2.1l0,0c-0.3,0.3-0.7,0.4-1,0.4l0,0   C34.6,40.4,34.2,40.3,33.9,39.9z M61.8,38.2c-0.7-0.5-0.8-1.4-0.4-2.1l0,0c0.5-0.7,1.4-0.8,2.1-0.4l0,0c0.7,0.5,0.8,1.4,0.4,2.1   l0,0c-0.3,0.4-0.8,0.6-1.2,0.6l0,0C62.4,38.5,62.1,38.4,61.8,38.2z M38.5,36.2c-0.4-0.7-0.1-1.6,0.6-2l0,0c0.7-0.4,1.6-0.1,2,0.6   l0,0c0.4,0.7,0.1,1.6-0.6,2l0,0c-0.2,0.1-0.5,0.2-0.7,0.2l0,0C39.3,37,38.8,36.7,38.5,36.2z M56.8,35.7c-0.8-0.3-1.2-1.1-0.9-1.9   l0,0c0.3-0.8,1.1-1.2,1.9-0.9l0,0c0.8,0.3,1.2,1.1,0.9,1.9l0,0c-0.2,0.6-0.8,1-1.4,1l0,0C57.2,35.8,57,35.7,56.8,35.7z M44,33.8   c-0.2-0.8,0.3-1.6,1.2-1.8l0,0c0.8-0.2,1.6,0.4,1.8,1.2l0,0c0.2,0.8-0.4,1.6-1.2,1.8l0,0c-0.1,0-0.2,0-0.3,0l0,0   C44.8,35,44.2,34.5,44,33.8z M51.4,34.5L51.4,34.5c-0.8-0.1-1.5-0.8-1.4-1.6l0,0c0-0.8,0.8-1.4,1.6-1.4l0,0c0,0,0,0,0,0l0,0   c0.8,0,1.5,0.8,1.4,1.6l0,0C52.9,33.9,52.3,34.5,51.4,34.5L51.4,34.5C51.4,34.5,51.4,34.5,51.4,34.5z"/><path display="inline" d="M50,83.5c-15.7,0-28.5-12.8-28.5-28.5S34.3,26.5,50,26.5S78.5,39.3,78.5,55S65.7,83.5,50,83.5z M50,29.5   c-14.1,0-25.5,11.4-25.5,25.5S35.9,80.5,50,80.5S75.5,69.1,75.5,55S64.1,29.5,50,29.5z"/></g><g display="none"><path display="inline" d="M53,56.3c-0.8-0.3-1.6,0.1-1.9,0.8c-0.8,2-3,3.4-5.4,3.4c-3.1,0-5.7-2.3-5.7-5V54h9.5   c0.8,0,1.5-0.7,1.5-1.5S50.3,51,49.5,51H40v-2h9.5c0.8,0,1.5-0.7,1.5-1.5S50.3,46,49.5,46H40v-1.5c0-2.8,2.6-5,5.7-5   c2.4,0,4.6,1.4,5.4,3.4c0.3,0.8,1.2,1.1,1.9,0.8c0.8-0.3,1.2-1.2,0.8-1.9c-1.2-3.2-4.5-5.3-8.2-5.3c-4.8,0-8.7,3.6-8.7,8V46h-1.5   c-0.8,0-1.5,0.7-1.5,1.5s0.7,1.5,1.5,1.5H37v2h-1.5c-0.8,0-1.5,0.7-1.5,1.5s0.7,1.5,1.5,1.5H37v1.5c0,4.4,3.9,8,8.7,8   c3.6,0,6.9-2.1,8.2-5.3C54.2,57.5,53.8,56.6,53,56.3z"/><g display="inline"><path d="M51.1,84.6c-1,0-2-0.1-3-0.2c-0.8-0.1-1.4-0.8-1.3-1.6c0.1-0.8,0.8-1.4,1.6-1.3c0.9,0.1,1.8,0.1,2.7,0.1    c14,0,25.5-11.4,25.5-25.5c0-1-0.1-2-0.2-2.9c-0.1-0.8,0.5-1.6,1.3-1.7c0.8-0.1,1.6,0.5,1.7,1.3c0.1,1.1,0.2,2.2,0.2,3.3    C79.6,71.8,66.8,84.6,51.1,84.6z"/></g><g display="inline"><path d="M57.3,90.7c-1,0-2-0.1-3-0.2c-0.8-0.1-1.4-0.8-1.3-1.7s0.8-1.4,1.7-1.3c0.9,0.1,1.8,0.1,2.7,0.1c14,0,25.5-11.4,25.5-25.5    c0-1-0.1-1.9-0.2-2.9c-0.1-0.8,0.5-1.6,1.3-1.7c0.8-0.1,1.6,0.5,1.7,1.3c0.1,1.1,0.2,2.2,0.2,3.3C85.7,78,73,90.7,57.3,90.7z"/></g><path display="inline" d="M45.1,72c-0.1-0.8,0.6-1.5,1.4-1.6l0,0c0.8-0.1,1.5,0.6,1.6,1.4l0,0c0,0.8-0.6,1.5-1.4,1.6l0,0   c0,0-0.1,0-0.1,0l0,0C45.8,73.4,45.1,72.8,45.1,72z M40.3,73c-0.8-0.2-1.3-1-1.2-1.8l0,0c0.2-0.8,1-1.3,1.8-1.2l0,0   c0.8,0.2,1.3,1,1.2,1.8l0,0c-0.1,0.7-0.8,1.2-1.5,1.2l0,0C40.5,73.1,40.4,73,40.3,73z M51,71.2c-0.3-0.8,0.1-1.6,0.9-1.9l0,0   c0.8-0.3,1.6,0.1,1.9,0.9l0,0c0.3,0.8-0.1,1.6-0.9,1.9l0,0c-0.2,0.1-0.3,0.1-0.5,0.1l0,0C51.8,72.2,51.2,71.8,51,71.2z M34.3,70.9   c-0.7-0.4-1-1.3-0.6-2l0,0c0.4-0.7,1.3-1,2-0.6l0,0c0.7,0.4,1,1.3,0.6,2l0,0c-0.3,0.5-0.8,0.8-1.3,0.8l0,0   C34.7,71.1,34.5,71,34.3,70.9z M56.5,68.8c-0.5-0.7-0.3-1.6,0.4-2.1h0c0.7-0.5,1.6-0.3,2.1,0.3l0,0c0.5,0.7,0.3,1.6-0.4,2.1l0,0   l0,0l0,0c-0.3,0.2-0.6,0.3-0.9,0.3l0,0C57.3,69.4,56.8,69.2,56.5,68.8z M29,67.2c-0.6-0.6-0.6-1.5-0.1-2.1l0,0   c0.6-0.6,1.5-0.6,2.1-0.1l0,0c0.6,0.6,0.6,1.5,0.1,2.1l0,0c-0.3,0.3-0.7,0.5-1.1,0.5l0,0C29.7,67.6,29.3,67.5,29,67.2z M61.2,65   c-0.7-0.5-0.8-1.5-0.2-2.1h0c0.5-0.6,1.5-0.8,2.1-0.2l0,0c0.6,0.5,0.7,1.5,0.2,2.1l0,0c0,0,0,0,0,0l0,0c-0.3,0.4-0.7,0.6-1.2,0.6   l0,0C61.8,65.3,61.4,65.2,61.2,65z M25,62.3c-0.4-0.7-0.2-1.6,0.5-2.1l0,0c0.7-0.4,1.6-0.2,2.1,0.5l0,0c0.4,0.7,0.2,1.6-0.5,2.1   l0,0c-0.2,0.1-0.5,0.2-0.8,0.2l0,0C25.7,63,25.2,62.8,25,62.3z M64.6,60.1c-0.8-0.3-1.1-1.2-0.8-2l0,0c0.3-0.8,1.2-1.1,2-0.8l0,0   c0.8,0.3,1.1,1.2,0.8,2l0,0l0,0l0,0c-0.2,0.6-0.8,0.9-1.4,0.9l0,0C65,60.2,64.8,60.2,64.6,60.1z M22.4,56.4c-0.2-0.8,0.2-1.6,1-1.8   l0,0c0.8-0.2,1.6,0.2,1.9,1l0,0c0.2,0.8-0.2,1.6-1,1.9l0,0c-0.1,0-0.3,0.1-0.4,0.1l0,0C23.2,57.5,22.6,57.1,22.4,56.4z M66.6,54.4   c-0.8-0.1-1.4-0.9-1.3-1.7l0,0c0.1-0.8,0.9-1.4,1.7-1.3l0,0c0.8,0.1,1.4,0.9,1.3,1.7l0,0c-0.1,0.8-0.8,1.3-1.5,1.3l0,0   C66.7,54.5,66.7,54.4,66.6,54.4z M21.5,50.1C21.5,50.1,21.5,50.1,21.5,50.1L21.5,50.1C21.5,50,21.5,50,21.5,50.1L21.5,50.1   c0-0.9,0.7-1.6,1.5-1.6l0,0c0.8,0,1.5,0.7,1.5,1.5l0,0c0,0,0,0,0,0l0,0c0,0,0,0,0,0v0c0,0.8-0.7,1.5-1.5,1.5l0,0c0,0,0,0,0,0l0,0   C22.2,51.6,21.5,50.9,21.5,50.1z M21.5,50.1L21.5,50.1L21.5,50.1L21.5,50.1L21.5,50.1L21.5,50.1z M65.3,47.2L65.3,47.2   c-0.1-0.8,0.5-1.6,1.3-1.7l0,0c0.8-0.1,1.6,0.5,1.7,1.3l0,0c0.1,0.8-0.5,1.6-1.3,1.7l0,0c-0.1,0-0.1,0-0.2,0l0,0   C66,48.5,65.4,47.9,65.3,47.2z M23.4,45.5c-0.8-0.2-1.3-1-1-1.9l0,0c0.2-0.8,1.1-1.3,1.9-1l0,0c0.8,0.2,1.3,1.1,1,1.9l0,0   c-0.2,0.7-0.8,1.1-1.4,1.1l0,0C23.7,45.6,23.5,45.5,23.4,45.5z M63.8,41.8L63.8,41.8c-0.3-0.8,0-1.6,0.8-2l0,0c0.8-0.3,1.6,0,2,0.8   l0,0c0,0,0,0,0,0l0,0c0.3,0.8,0,1.6-0.8,2l0,0c-0.2,0.1-0.4,0.1-0.6,0.1l0,0C64.6,42.7,64,42.4,63.8,41.8z M25.4,39.8   c-0.7-0.4-0.9-1.3-0.5-2.1l0,0c0.4-0.7,1.4-0.9,2.1-0.5l0,0c0.7,0.4,0.9,1.4,0.5,2.1l0,0c-0.3,0.5-0.8,0.7-1.3,0.7l0,0   C25.9,40.1,25.7,40,25.4,39.8z M60.9,37L60.9,37c-0.5-0.6-0.4-1.6,0.2-2.1l0,0c0.7-0.5,1.6-0.4,2.1,0.2l0,0   c0.5,0.6,0.4,1.6-0.2,2.1l0,0c-0.3,0.2-0.6,0.3-1,0.3l0,0C61.6,37.6,61.2,37.4,60.9,37z M28.9,34.9c-0.6-0.6-0.5-1.5,0.1-2.1l0,0   c0.6-0.6,1.6-0.5,2.1,0.1l0,0c0.6,0.6,0.5,1.6-0.1,2.1l0,0c-0.3,0.3-0.7,0.4-1,0.4l0,0C29.6,35.4,29.2,35.3,28.9,34.9z M56.8,33.2   c-0.7-0.5-0.8-1.4-0.4-2.1l0,0c0.5-0.7,1.4-0.8,2.1-0.4l0,0c0.7,0.5,0.8,1.4,0.4,2.1l0,0c-0.3,0.4-0.8,0.6-1.2,0.6l0,0   C57.4,33.5,57.1,33.4,56.8,33.2z M33.5,31.2c-0.4-0.7-0.1-1.6,0.6-2l0,0c0.7-0.4,1.6-0.1,2,0.6l0,0c0.4,0.7,0.1,1.6-0.6,2h0   c-0.2,0.1-0.5,0.2-0.7,0.2l0,0C34.3,32,33.8,31.7,33.5,31.2z M51.8,30.7L51.8,30.7c-0.8-0.3-1.2-1.1-0.9-1.9l0,0   c0.3-0.8,1.1-1.2,1.9-0.9l0,0c0.8,0.3,1.2,1.1,0.9,1.9l0,0c-0.2,0.6-0.8,1-1.4,1l0,0C52.2,30.8,52,30.7,51.8,30.7z M39,28.8   c-0.2-0.8,0.3-1.6,1.2-1.8l0,0c0.8-0.2,1.6,0.4,1.8,1.2l0,0c0.2,0.8-0.4,1.6-1.2,1.8l0,0c-0.1,0-0.2,0-0.3,0l0,0   C39.8,30,39.2,29.5,39,28.8z M46.4,29.5L46.4,29.5c-0.8-0.1-1.5-0.8-1.4-1.6l0,0c0.1-0.8,0.8-1.4,1.6-1.4l0,0   c0.8,0.1,1.5,0.8,1.4,1.6l0,0c-0.1,0.8-0.7,1.4-1.5,1.4l0,0C46.4,29.5,46.4,29.5,46.4,29.5z"/><path display="inline" d="M45,78.5c-15.7,0-28.5-12.8-28.5-28.5S29.3,21.5,45,21.5S73.5,34.3,73.5,50S60.7,78.5,45,78.5z M45,24.5   c-14.1,0-25.5,11.4-25.5,25.5S30.9,75.5,45,75.5S70.5,64.1,70.5,50S59.1,24.5,45,24.5z"/></g><g display="none"><path display="inline" d="M58,61.3c-0.8-0.3-1.6,0.1-1.9,0.8c-0.8,2-3,3.4-5.4,3.4c-3.1,0-5.7-2.3-5.7-5V59h9.5   c0.8,0,1.5-0.7,1.5-1.5S55.3,56,54.5,56H45v-2h9.5c0.8,0,1.5-0.7,1.5-1.5S55.3,51,54.5,51H45v-1.5c0-2.8,2.6-5,5.7-5   c2.4,0,4.6,1.4,5.4,3.4c0.3,0.8,1.2,1.1,1.9,0.8c0.8-0.3,1.2-1.2,0.8-1.9c-1.2-3.2-4.5-5.3-8.2-5.3c-4.8,0-8.7,3.6-8.7,8V51h-1.5   c-0.8,0-1.5,0.7-1.5,1.5s0.7,1.5,1.5,1.5H42v2h-1.5c-0.8,0-1.5,0.7-1.5,1.5s0.7,1.5,1.5,1.5H42v1.5c0,4.4,3.9,8,8.7,8   c3.6,0,6.9-2.1,8.2-5.3C59.2,62.5,58.8,61.6,58,61.3z"/><path display="inline" d="M88.5,78.2h-77c-0.8,0-1.5-0.7-1.5-1.5V33.2c0-0.8,0.7-1.5,1.5-1.5h77c0.8,0,1.5,0.7,1.5,1.5v43.5   C90,77.6,89.3,78.2,88.5,78.2z M13,75.2h74V34.8H13V75.2z"/><g display="inline"><path d="M29.5,55c0-6.1,2.6-11.5,6.8-15.2H19.5c-0.8,0-1.5,0.7-1.5,1.5v27.5c0,0.8,0.7,1.5,1.5,1.5h16.8    C32.1,66.5,29.5,61.1,29.5,55z"/><path d="M80.5,39.8H63.7c4.2,3.8,6.8,9.2,6.8,15.2s-2.6,11.5-6.8,15.2h16.8c0.8,0,1.5-0.7,1.5-1.5V41.2    C82,40.4,81.3,39.8,80.5,39.8z"/></g></g><g display="none"><path display="inline" d="M53,56.3c-0.8-0.3-1.6,0.1-1.9,0.8c-0.8,2-3,3.4-5.4,3.4c-3.1,0-5.7-2.3-5.7-5V54h9.5   c0.8,0,1.5-0.7,1.5-1.5S50.3,51,49.5,51H40v-2h9.5c0.8,0,1.5-0.7,1.5-1.5S50.3,46,49.5,46H40v-1.5c0-2.8,2.6-5,5.7-5   c2.4,0,4.6,1.4,5.4,3.4c0.3,0.8,1.2,1.1,1.9,0.8c0.8-0.3,1.2-1.2,0.8-1.9c-1.2-3.2-4.5-5.3-8.2-5.3c-4.8,0-8.7,3.6-8.7,8V46h-1.5   c-0.8,0-1.5,0.7-1.5,1.5s0.7,1.5,1.5,1.5H37v2h-1.5c-0.8,0-1.5,0.7-1.5,1.5s0.7,1.5,1.5,1.5H37v1.5c0,4.4,3.9,8,8.7,8   c3.6,0,6.9-2.1,8.2-5.3C54.2,57.5,53.8,56.6,53,56.3z"/><path display="inline" d="M93.5,83.2h-77c-0.8,0-1.5-0.7-1.5-1.5s0.7-1.5,1.5-1.5H92v-42c0-0.8,0.7-1.5,1.5-1.5s1.5,0.7,1.5,1.5   v43.5C95,82.6,94.3,83.2,93.5,83.2z"/><path display="inline" d="M88.5,78.2h-77c-0.8,0-1.5-0.7-1.5-1.5s0.7-1.5,1.5-1.5H87v-42c0-0.8,0.7-1.5,1.5-1.5s1.5,0.7,1.5,1.5   v43.5C90,77.6,89.3,78.2,88.5,78.2z"/><path display="inline" d="M83.5,73.2h-77c-0.8,0-1.5-0.7-1.5-1.5V28.2c0-0.8,0.7-1.5,1.5-1.5h77c0.8,0,1.5,0.7,1.5,1.5v43.5   C85,72.6,84.3,73.2,83.5,73.2z M8,70.2h74V29.8H8V70.2z"/><g display="inline"><path d="M24.5,50c0-6.1,2.6-11.5,6.8-15.2H14.5c-0.8,0-1.5,0.7-1.5,1.5v27.5c0,0.8,0.7,1.5,1.5,1.5h16.8    C27.1,61.5,24.5,56.1,24.5,50z"/><path d="M75.5,34.8H58.7c4.2,3.8,6.8,9.2,6.8,15.2s-2.6,11.5-6.8,15.2h16.8c0.8,0,1.5-0.7,1.5-1.5V36.2    C77,35.4,76.3,34.8,75.5,34.8z"/></g></g><g display="none"><path display="inline" d="M58,61.3c-0.8-0.3-1.6,0.1-1.9,0.8c-0.8,2-3,3.4-5.4,3.4c-3.1,0-5.7-2.3-5.7-5V59h9.5   c0.8,0,1.5-0.7,1.5-1.5S55.3,56,54.5,56H45v-2h9.5c0.8,0,1.5-0.7,1.5-1.5S55.3,51,54.5,51H45v-1.5c0-2.8,2.6-5,5.7-5   c2.4,0,4.6,1.4,5.4,3.4c0.3,0.8,1.2,1.1,1.9,0.8c0.8-0.3,1.2-1.2,0.8-1.9c-1.2-3.2-4.5-5.3-8.2-5.3c-4.8,0-8.7,3.6-8.7,8V51h-1.5   c-0.8,0-1.5,0.7-1.5,1.5s0.7,1.5,1.5,1.5H42v2h-1.5c-0.8,0-1.5,0.7-1.5,1.5s0.7,1.5,1.5,1.5H42v1.5c0,4.4,3.9,8,8.7,8   c3.6,0,6.9-2.1,8.2-5.3C59.2,62.5,58.8,61.6,58,61.3z"/><path display="inline" d="M54.1,27.4c-0.3,0-0.6-0.1-0.9-0.3c-0.7-0.5-0.8-1.4-0.3-2.1l2.8-3.7l-5.5,0.6c-0.1,0-0.2,0-0.3,0   l-5.5-0.6l2.8,3.7c0.5,0.7,0.4,1.6-0.3,2.1c-0.7,0.5-1.6,0.4-2.1-0.3l-4.9-6.5c-0.4-0.5-0.4-1.1-0.1-1.6c0.3-0.5,0.9-0.8,1.5-0.8   l8.8,1l8.8-1c0.6-0.1,1.2,0.2,1.5,0.8s0.3,1.2-0.1,1.6l-4.9,6.5C55,27.2,54.5,27.4,54.1,27.4z"/><path display="inline" d="M50,79c-10.2,0-21.7,0-21.7-14.9C28.3,50.2,38,29,50,29s21.7,21.2,21.7,35.1C71.7,79,60.2,79,50,79z    M50,32c-4.4,0-9.1,4.1-12.9,11.1c-3.5,6.5-5.7,14.7-5.7,20.9C31.3,75.4,38.4,76,50,76s18.7-0.6,18.7-11.9c0-6.3-2.2-14.5-5.7-20.9   C59.1,36.1,54.4,32,50,32z"/></g><g display="none"><path display="inline" d="M58,61.3c-0.8-0.3-1.6,0.1-1.9,0.8c-0.8,2-3,3.4-5.4,3.4c-3.1,0-5.7-2.3-5.7-5V59h9.5   c0.8,0,1.5-0.7,1.5-1.5S55.3,56,54.5,56H45v-2h9.5c0.8,0,1.5-0.7,1.5-1.5S55.3,51,54.5,51H45v-1.5c0-2.8,2.6-5,5.7-5   c2.4,0,4.6,1.4,5.4,3.4c0.3,0.8,1.2,1.1,1.9,0.8c0.8-0.3,1.2-1.2,0.8-1.9c-1.2-3.2-4.5-5.3-8.2-5.3c-4.8,0-8.7,3.6-8.7,8V51h-1.5   c-0.8,0-1.5,0.7-1.5,1.5s0.7,1.5,1.5,1.5H42v2h-1.5c-0.8,0-1.5,0.7-1.5,1.5s0.7,1.5,1.5,1.5H42v1.5c0,4.4,3.9,8,8.7,8   c3.6,0,6.9-2.1,8.2-5.3C59.2,62.5,58.8,61.6,58,61.3z"/><path display="inline" d="M30,75.5c-0.8,0-1.5-0.7-1.5-1.5V36c0-0.8,0.7-1.5,1.5-1.5s1.5,0.7,1.5,1.5v38   C31.5,74.8,30.8,75.5,30,75.5z"/><path display="inline" d="M20,75.5c-0.8,0-1.5-0.7-1.5-1.5V36c0-0.8,0.7-1.5,1.5-1.5s1.5,0.7,1.5,1.5v38   C21.5,74.8,20.8,75.5,20,75.5z"/><path display="inline" d="M70,75.5c-0.8,0-1.5-0.7-1.5-1.5V36c0-0.8,0.7-1.5,1.5-1.5s1.5,0.7,1.5,1.5v38   C71.5,74.8,70.8,75.5,70,75.5z"/><path display="inline" d="M80,75.5c-0.8,0-1.5-0.7-1.5-1.5V36c0-0.8,0.7-1.5,1.5-1.5s1.5,0.7,1.5,1.5v38   C81.5,74.8,80.8,75.5,80,75.5z"/><path display="inline" d="M83.5,32.5C83.5,32.5,83.5,32.5,83.5,32.5h-67c-0.7,0-1.3-0.5-1.4-1.1c-0.2-0.7,0.1-1.3,0.7-1.7l33.5-20   c0.5-0.3,1.1-0.3,1.5,0l33.4,19.9c0.5,0.2,0.9,0.8,0.9,1.4C85,31.8,84.3,32.5,83.5,32.5z M21.9,29.5h56.1L50,12.7L21.9,29.5z"/><path display="inline" d="M83.5,80.5h-67c-0.8,0-1.5-0.7-1.5-1.5s0.7-1.5,1.5-1.5h67c0.8,0,1.5,0.7,1.5,1.5S84.3,80.5,83.5,80.5z"/><path display="inline" d="M88.5,85.5h-77c-0.8,0-1.5-0.7-1.5-1.5s0.7-1.5,1.5-1.5h77c0.8,0,1.5,0.7,1.5,1.5S89.3,85.5,88.5,85.5z"/><path display="inline" d="M93.5,90.5h-87C5.7,90.5,5,89.8,5,89s0.7-1.5,1.5-1.5h87c0.8,0,1.5,0.7,1.5,1.5S94.3,90.5,93.5,90.5z"/></g><g display="none"><path display="inline" fill="none" stroke="#000000" stroke-width="3" stroke-linecap="round" d="M57,59.5c0,3.6-3.1,6.5-7,6.5h0   c-3.8,0-7-2.9-7-6.5V48.5c0-3.6,3.1-6.5,7-6.5h0c3.8,0,7,2.9,7,6.5"/><line display="inline" fill="none" stroke="#000000" stroke-width="3" stroke-linecap="round" x1="50" y1="37" x2="50" y2="42"/><line display="inline" fill="none" stroke="#000000" stroke-width="3" stroke-linecap="round" x1="50" y1="66" x2="50" y2="71"/></g><g display="none"><path display="inline" fill="none" stroke="#000000" stroke-width="3" stroke-linecap="round" d="M57,59.5c0,3.6-3.1,6.5-7,6.5h0   c-3.8,0-7-2.9-7-6.5V48.5c0-3.6,3.1-6.5,7-6.5h0c3.8,0,7,2.9,7,6.5"/><line display="inline" fill="none" stroke="#000000" stroke-width="3" stroke-linecap="round" x1="50" y1="37" x2="50" y2="71"/></g><g display="none"><path display="inline" fill="none" stroke="#000000" stroke-width="3" stroke-linecap="round" d="M57,60.5c0,3.6-3.1,6.5-7,6.5h0   c-3.8,0-7-2.9-7-6.5V49.5c0-3.6,3.1-6.5,7-6.5h0c3.8,0,7,2.9,7,6.5"/><line display="inline" fill="none" stroke="#000000" stroke-width="3" stroke-linecap="round" x1="54.4" y1="38.6" x2="45.6" y2="71.4"/></g><g display="none"><line display="inline" fill="none" stroke="#000000" stroke-width="3" stroke-linecap="round" x1="42.2" y1="55" x2="54.2" y2="55"/><path display="inline" fill="none" stroke="#000000" stroke-width="3" stroke-linecap="round" stroke-linejoin="round" d="M56.6,65   c0,1.5-0.9,2-2.1,2s-4.7-2.4-9.8,0c0,0,3.9-3.3,3.9-6.4s-3.8-9.3-3.8-12c0-2.5,3-5.6,6.7-5.6c2.9,0,5.4,1.3,6.3,3.1"/></g><g display="none"><line display="inline" fill="none" stroke="#000000" stroke-width="3" stroke-linecap="round" x1="41" y1="52.5" x2="59" y2="52.5"/><line display="inline" fill="none" stroke="#000000" stroke-width="3" stroke-linecap="round" x1="41" y1="57.5" x2="59" y2="57.5"/><path display="inline" fill="none" stroke="#000000" stroke-width="3" stroke-linecap="round" d="M56.5,64.2   c-0.7,1-2.9,2.8-6.5,2.8c-3.8,0-6.5-2.6-6.5-5.5c0-7.2,13-5.6,13-13c0-2.9-2.7-5.5-6.5-5.5c-3.6,0-5.7,1.7-6.5,2.8"/></g><g display="none"><line display="inline" fill="none" stroke="#000000" stroke-width="3" stroke-linecap="round" x1="41" y1="60" x2="55" y2="60"/><line display="inline" fill="none" stroke="#000000" stroke-width="3" stroke-linecap="round" x1="41" y1="55" x2="46" y2="55"/><path display="inline" fill="none" stroke="#000000" stroke-width="3" stroke-linecap="round" stroke-linejoin="round" d="M46,67   V43h5.8c5.5,0,7.2,2,7.2,5.5S57.2,55,51.8,55H46"/></g><g display="none"><line display="inline" fill="none" stroke="#000000" stroke-width="3" stroke-linecap="round" stroke-linejoin="round" x1="43" y1="42" x2="43" y2="66"/><path display="inline" fill="none" stroke="#000000" stroke-width="3" stroke-linecap="round" stroke-linejoin="round" d="M45,54   h5.1c5.9,0,8.9-2.2,8.9-6s-3-6-8.9-6H43"/><path display="inline" fill="none" stroke="#000000" stroke-width="3" stroke-linecap="round" stroke-linejoin="round" d="M45,54   h5.1c5.9,0,8.9,2.2,8.9,6s-3,6-8.9,6H43"/><line display="inline" fill="none" stroke="#000000" stroke-width="3" stroke-linecap="round" x1="50" y1="37" x2="50" y2="42"/><line display="inline" fill="none" stroke="#000000" stroke-width="3" stroke-linecap="round" x1="50" y1="66" x2="50" y2="71"/></g><g display="none"><line display="inline" fill="none" stroke="#000000" stroke-width="3" stroke-linecap="round" stroke-linejoin="round" x1="45" y1="42" x2="45" y2="66"/><path display="inline" fill="none" stroke="#000000" stroke-width="3" stroke-linecap="round" stroke-linejoin="round" d="M45,54   h5.1c5.9,0,8.9-2.2,8.9-6s-3-6-8.9-6H43"/><path display="inline" fill="none" stroke="#000000" stroke-width="3" stroke-linecap="round" stroke-linejoin="round" d="M45,54   h5.1c5.9,0,8.9,2.2,8.9,6s-3,6-8.9,6H43"/><line display="inline" fill="none" stroke="#000000" stroke-width="3" stroke-linecap="round" x1="52.5" y1="37" x2="52.5" y2="42"/><line display="inline" fill="none" stroke="#000000" stroke-width="3" stroke-linecap="round" x1="52.5" y1="66" x2="52.5" y2="71"/><line display="inline" fill="none" stroke="#000000" stroke-width="3" stroke-linecap="round" x1="47.5" y1="37" x2="47.5" y2="42"/><line display="inline" fill="none" stroke="#000000" stroke-width="3" stroke-linecap="round" x1="47.5" y1="66" x2="47.5" y2="71"/></g><g display="none"><path display="inline" fill="none" stroke="#000000" stroke-width="3" stroke-linecap="round" stroke-linejoin="round" d="M46,43   v24c9.2,0,12-7.8,12-7.8"/><line display="inline" fill="none" stroke="#000000" stroke-width="3" stroke-linecap="round" x1="42" y1="52" x2="55" y2="48"/><line display="inline" fill="none" stroke="#000000" stroke-width="3" stroke-linecap="round" x1="42" y1="57" x2="55" y2="53"/></g><g display="none"><line display="inline" fill="none" stroke="#000000" stroke-width="3" stroke-linecap="round" x1="42" y1="43" x2="60" y2="43"/><line display="inline" fill="none" stroke="#000000" stroke-width="3" stroke-linecap="round" x1="42" y1="48" x2="60" y2="48"/><path display="inline" fill="none" stroke="#000000" stroke-width="3" stroke-linecap="round" stroke-linejoin="round" d="M42,43   h5.8c5.5,0,7.2,2.6,7.2,6s-1.8,6-7.2,6H42l12,12"/></g><g display="none"><polyline display="inline" fill="none" stroke="#000000" stroke-width="3" stroke-linecap="round" stroke-linejoin="round" points="   58,43 50,55 42,43  "/><line display="inline" fill="none" stroke="#000000" stroke-width="3" stroke-linecap="round" stroke-linejoin="round" x1="50" y1="55" x2="50" y2="67"/><line display="inline" fill="none" stroke="#000000" stroke-width="3" stroke-linecap="round" x1="43" y1="56.5" x2="57" y2="56.5"/><line display="inline" fill="none" stroke="#000000" stroke-width="3" stroke-linecap="round" x1="43" y1="61.5" x2="57" y2="61.5"/></g><g display="none"><line display="inline" fill="none" stroke="#000000" stroke-width="3" stroke-linecap="round" stroke-linejoin="round" x1="42.5" y1="46" x2="57.5" y2="46"/><line display="inline" fill="none" stroke="#000000" stroke-width="3" stroke-linecap="round" stroke-linejoin="round" x1="41" y1="52" x2="59" y2="52"/><path display="inline" fill="none" stroke="#000000" stroke-width="3" stroke-linecap="round" stroke-linejoin="round" d="M47,52   c0,0,0,8.9-6,12"/><polyline display="inline" fill="none" stroke="#000000" stroke-width="3" stroke-linecap="round" stroke-linejoin="round" points="   53,52 53,64 57.5,64 59,60  "/></g><g display="none"><line display="inline" fill="none" stroke="#000000" stroke-width="3" stroke-linecap="round" stroke-linejoin="round" x1="41" y1="54" x2="59" y2="54"/><polyline display="inline" fill="none" stroke="#000000" stroke-width="3" stroke-linecap="round" stroke-linejoin="round" points="   41,64 41,46 59,46 59,64 55,64  "/><line display="inline" fill="none" stroke="#000000" stroke-width="3" stroke-linecap="round" stroke-linejoin="round" x1="50" y1="46" x2="50" y2="54"/></g><g display="none"><path display="inline" fill="none" stroke="#000000" stroke-width="3" stroke-linecap="round" stroke-linejoin="round" d="M41,64   V46h7c0,0,5,0,5,8v4"/><path display="inline" fill="none" stroke="#000000" stroke-width="3" stroke-linecap="round" stroke-linejoin="round" d="M59,46   v11c0,0,0,7.2-6,7h-6V52"/></g><g display="none"><polyline display="inline" fill="none" stroke="#000000" stroke-width="3" stroke-linecap="round" stroke-linejoin="round" points="   41,43 45.5,67 50,43 54.5,67 59,43  "/><line display="inline" fill="none" stroke="#000000" stroke-width="3" stroke-linecap="round" x1="40" y1="52.5" x2="60" y2="52.5"/><line display="inline" fill="none" stroke="#000000" stroke-width="3" stroke-linecap="round" x1="40" y1="57.5" x2="60" y2="57.5"/></g><g display="none"><line display="inline" fill="none" stroke="#000000" stroke-width="3" stroke-linecap="round" stroke-linejoin="round" x1="59" y1="64" x2="41" y2="46"/><line display="inline" fill="none" stroke="#000000" stroke-width="3" stroke-linecap="round" stroke-linejoin="round" x1="41" y1="64" x2="59" y2="46"/><circle display="inline" fill="#000000" stroke="#000000" stroke-width="3" stroke-linecap="round" stroke-linejoin="round" cx="50" cy="55" r="7.5"/></g><g display="none"><line display="inline" fill="none" stroke="#000000" stroke-width="3" stroke-linecap="round" stroke-linejoin="round" x1="59" y1="64" x2="41" y2="46"/><line display="inline" fill="none" stroke="#000000" stroke-width="3" stroke-linecap="round" stroke-linejoin="round" x1="41" y1="64" x2="59" y2="46"/><path display="inline" fill="#000000" stroke="#000000" stroke-width="3" stroke-linecap="round" stroke-linejoin="round" d="   M45.5,61c-1.8-1.4-3-3.5-3-6c0-4.1,3.4-7.5,7.5-7.5s7.5,3.4,7.5,7.5c0,2.5-1.2,4.7-3.1,6.1"/><path display="inline" fill="none" stroke="#000000" stroke-width="3" stroke-linecap="round" stroke-linejoin="round" stroke-miterlimit="10" d="   M53.9,68.8C52.8,69.6,51.4,70,50,70c-1.5,0-2.9-0.5-4.1-1.3"/><circle display="inline" cx="47.5" cy="55.5" r="2"/><circle display="inline" cx="52.5" cy="55.5" r="2"/><line display="inline" fill="none" stroke="#000000" stroke-width="3" stroke-linecap="round" stroke-linejoin="round" stroke-miterlimit="10" x1="50" y1="57.3" x2="50" y2="59"/><circle display="inline" cx="50" cy="65" r="1.5"/><circle display="inline" cx="47.5" cy="64.6" r="1.5"/><circle display="inline" cx="52.5" cy="64.6" r="1.5"/></g><g display="none"><line display="inline" fill="none" stroke="#000000" stroke-width="3" stroke-linecap="round" stroke-linejoin="round" x1="59" y1="64" x2="41" y2="46"/><line display="inline" fill="none" stroke="#000000" stroke-width="3" stroke-linecap="round" stroke-linejoin="round" x1="41" y1="64" x2="59" y2="46"/><circle display="inline" fill="#000000" stroke="#000000" stroke-width="3" stroke-linecap="round" stroke-linejoin="round" cx="50" cy="55" r="7.5"/><path display="inline" fill="none" stroke="#000000" stroke-width="3" stroke-linecap="round" stroke-linejoin="round" stroke-miterlimit="10" d="   M53.9,67.8C52.8,68.6,51.4,69,50,69c-1.5,0-2.9-0.5-4.1-1.3"/><circle display="inline" cx="47.5" cy="56.5" r="2"/><circle display="inline" cx="52.5" cy="56.5" r="2"/><line display="inline" fill="none" stroke="#000000" stroke-width="3" stroke-linecap="round" stroke-linejoin="round" stroke-miterlimit="10" x1="50" y1="59.3" x2="50" y2="61.8"/><circle display="inline" cx="49" cy="64.5" r="1.5"/><circle display="inline" cx="47" cy="64" r="1.5"/><circle display="inline" cx="53" cy="64" r="1.5"/><circle display="inline" cx="51" cy="64.5" r="1.5"/><line display="inline" fill="none" stroke="#000000" stroke-width="3" stroke-linecap="round" stroke-linejoin="round" stroke-miterlimit="10" x1="47" y1="64" x2="47" y2="61.9"/><line display="inline" fill="none" stroke="#000000" stroke-width="3" stroke-linecap="round" stroke-linejoin="round" stroke-miterlimit="10" x1="53.3" y1="64" x2="53.3" y2="61.8"/></g><g display="none"><line display="inline" fill="none" stroke="#000000" stroke-width="3" stroke-linecap="round" stroke-linejoin="round" x1="59" y1="64" x2="41" y2="46"/><line display="inline" fill="none" stroke="#000000" stroke-width="3" stroke-linecap="round" stroke-linejoin="round" x1="41" y1="64" x2="59" y2="46"/><path display="inline" fill="#000000" stroke="#000000" stroke-width="3" stroke-linecap="round" stroke-linejoin="round" d="   M47,64v-2.1l0,0c-2.6-1.2-4.5-3.8-4.5-6.9c0-4.1,3.4-7.5,7.5-7.5s7.5,3.4,7.5,7.5c0,3-1.7,5.5-4.2,6.7l0,0V64"/><path display="inline" fill="none" stroke="#000000" stroke-width="3" stroke-linecap="round" stroke-linejoin="round" stroke-miterlimit="10" d="   M53.9,67.8C52.8,68.6,51.4,69,50,69c-1.5,0-2.9-0.5-4.1-1.3"/><circle display="inline" cx="47.5" cy="56.5" r="2"/><circle display="inline" cx="52.5" cy="56.5" r="2"/><line display="inline" fill="none" stroke="#000000" stroke-width="3" stroke-linecap="round" stroke-linejoin="round" stroke-miterlimit="10" x1="50" y1="58.3" x2="50" y2="59.8"/><circle display="inline" cx="49" cy="64.5" r="1.5"/><circle display="inline" cx="47" cy="64" r="1.5"/><circle display="inline" cx="53" cy="64" r="1.5"/><circle display="inline" cx="51" cy="64.5" r="1.5"/></g><g display="none"><path display="inline" fill="none" stroke="#000000" stroke-width="3" stroke-linecap="round" d="M57,60.5c0,3.6-3.1,6.5-7,6.5h0   c-3.8,0-7-2.9-7-6.5V49.5c0-3.6,3.1-6.5,7-6.5h0c3.8,0,7,2.9,7,6.5V60.5z"/><line display="inline" fill="none" stroke="#000000" stroke-width="3" stroke-linecap="round" x1="53" y1="43.8" x2="47" y2="66.2"/></g><g display="none"><line display="inline" fill="none" stroke="#000000" stroke-width="3" stroke-linecap="round" x1="53.2" y1="43" x2="46.8" y2="67"/><path display="inline" fill="none" stroke="#000000" stroke-width="3" stroke-linecap="round" d="M53,60.2c0-2,1.8-3.7,4-3.7h0   c2.2,0,4,1.6,4,3.7v3.2c0,2-1.8,3.7-4,3.7h0c-2.2,0-4-1.6-4-3.7V60.2z"/><path display="inline" fill="none" stroke="#000000" stroke-width="3" stroke-linecap="round" d="M47,49.8c0,2-1.8,3.7-4,3.7h0   c-2.2,0-4-1.6-4-3.7v-3.2c0-2,1.8-3.7,4-3.7h0c2.2,0,4,1.6,4,3.7V49.8z"/></g><g display="none"><path display="inline" fill="none" stroke="#000000" stroke-width="3" stroke-linecap="round" d="M50,61.3c0-5.6,5.4-9.4,5.4-12.7   c0-3.1-2.5-5.6-5.6-5.6c-2.4,0-4.5,1.6-5.3,3.8"/><circle display="inline" cx="50" cy="66.5" r="2"/></g><g display="none"><circle display="inline" fill="none" stroke="#000000" stroke-width="3" stroke-linecap="round" stroke-linejoin="round" stroke-miterlimit="10" cx="50" cy="50.8" r="7.8"/><path display="inline" fill="none" stroke="#000000" stroke-width="3" stroke-linecap="round" stroke-linejoin="round" stroke-miterlimit="10" d="   M54.4,65.7C53.1,66.5,51.6,67,50,67c-1.7,0-3.3-0.5-4.5-1.4"/><path display="inline" fill="none" stroke="#000000" stroke-width="3" stroke-linecap="round" stroke-linejoin="round" stroke-miterlimit="10" d="   M54.4,60.7C53.1,61.5,51.6,62,50,62c-1.7,0-3.3-0.5-4.5-1.4"/></g><g display="none"><path display="inline" fill="none" stroke="#000000" stroke-width="3" stroke-linecap="round" stroke-linejoin="round" stroke-miterlimit="10" d="   M50,62c1.7,0,3.3-0.5,4.5-1.4c0,0-0.4-2.6,0.9-4.1l0,0c1.5-1.4,2.4-3.4,2.4-5.6c0-4.3-3.5-7.8-7.8-7.8s-7.8,3.5-7.8,7.8   c0,2.2,0.9,4.2,2.4,5.6l0,0c1.3,1.5,0.9,4.1,0.9,4.1C46.7,61.5,48.3,62,50,62z"/><path display="inline" fill="none" stroke="#000000" stroke-width="3" stroke-linecap="round" stroke-linejoin="round" stroke-miterlimit="10" d="   M54.4,65.7C53.1,66.5,51.6,67,50,67c-1.7,0-3.3-0.5-4.5-1.4"/><circle display="inline" cx="47.5" cy="52" r="2"/><circle display="inline" cx="52.5" cy="52" r="2"/><line display="inline" fill="none" stroke="#000000" stroke-width="3" stroke-linecap="round" stroke-linejoin="round" stroke-miterlimit="10" x1="50" y1="55.4" x2="50" y2="57.1"/></g><g display="none"><line display="inline" fill="none" stroke="#000000" stroke-width="3" stroke-linecap="round" stroke-linejoin="round" x1="60" y1="60" x2="40" y2="43"/><line display="inline" fill="none" stroke="#000000" stroke-width="3" stroke-linecap="round" stroke-linejoin="round" x1="40" y1="60" x2="60" y2="43"/><path display="inline" fill="#000000" stroke="#000000" stroke-width="3" stroke-linecap="round" stroke-linejoin="round" stroke-miterlimit="10" d="   M50,62c1.7,0,3.3-0.5,4.5-1.4c0,0-0.4-2.6,0.9-4.1l0,0c1.5-1.4,2.4-3.4,2.4-5.6c0-4.3-3.5-7.8-7.8-7.8s-7.8,3.5-7.8,7.8   c0,2.2,0.9,4.2,2.4,5.6l0,0c1.3,1.5,0.9,4.1,0.9,4.1C46.7,61.5,48.3,62,50,62z"/><path display="inline" fill="none" stroke="#000000" stroke-width="3" stroke-linecap="round" stroke-linejoin="round" stroke-miterlimit="10" d="   M54.4,65.7C53.1,66.5,51.6,67,50,67c-1.7,0-3.3-0.5-4.5-1.4"/><circle display="inline" cx="47.5" cy="52" r="2"/><circle display="inline" cx="52.5" cy="52" r="2"/><line display="inline" fill="none" stroke="#000000" stroke-width="3" stroke-linecap="round" stroke-linejoin="round" stroke-miterlimit="10" x1="50" y1="55.4" x2="50" y2="57.1"/></g><g display="none"><line display="inline" fill="none" stroke="#000000" stroke-width="3" stroke-linecap="round" stroke-linejoin="round" x1="59.4" y1="42.8" x2="40.6" y2="59.2"/><line display="inline" fill="none" stroke="#000000" stroke-width="3" stroke-linecap="round" stroke-linejoin="round" x1="58.8" y1="42" x2="60.1" y2="43.5"/><line display="inline" fill="none" stroke="#000000" stroke-width="3" stroke-linecap="round" stroke-linejoin="round" x1="39.9" y1="58.5" x2="41.2" y2="60"/><line display="inline" fill="none" stroke="#000000" stroke-width="3" stroke-linecap="round" stroke-linejoin="round" x1="59.4" y1="59.2" x2="40.6" y2="42.8"/><path display="inline" fill="#000000" stroke="#000000" stroke-width="3" stroke-linecap="round" stroke-linejoin="round" stroke-miterlimit="10" d="   M50,62c1.7,0,3.3-0.5,4.5-1.4c0,0-0.4-2.6,0.9-4.1l0,0c1.5-1.4,2.4-3.4,2.4-5.6c0-4.3-3.5-7.8-7.8-7.8s-7.8,3.5-7.8,7.8   c0,2.2,0.9,4.2,2.4,5.6l0,0c1.3,1.5,0.9,4.1,0.9,4.1C46.7,61.5,48.3,62,50,62z"/><path display="inline" fill="none" stroke="#000000" stroke-width="3" stroke-linecap="round" stroke-linejoin="round" stroke-miterlimit="10" d="   M54.4,65.7C53.1,66.5,51.6,67,50,67c-1.7,0-3.3-0.5-4.5-1.4"/><circle display="inline" cx="47.5" cy="52" r="2"/><circle display="inline" cx="52.5" cy="52" r="2"/><line display="inline" fill="none" stroke="#000000" stroke-width="3" stroke-linecap="round" stroke-linejoin="round" stroke-miterlimit="10" x1="50" y1="55.4" x2="50" y2="57.1"/><line display="inline" fill="none" stroke="#000000" stroke-width="3" stroke-linecap="round" stroke-linejoin="round" x1="58.8" y1="60" x2="60.1" y2="58.5"/><line display="inline" fill="none" stroke="#000000" stroke-width="3" stroke-linecap="round" stroke-linejoin="round" x1="39.9" y1="43.5" x2="41.2" y2="42"/></g><g display="none"><line display="inline" fill="none" stroke="#000000" stroke-width="3" stroke-linecap="round" stroke-linejoin="round" x1="59.4" y1="42.8" x2="40.6" y2="59.2"/><line display="inline" fill="none" stroke="#000000" stroke-width="3" stroke-linecap="round" stroke-linejoin="round" x1="58.8" y1="42" x2="60.1" y2="43.5"/><line display="inline" fill="none" stroke="#000000" stroke-width="3" stroke-linecap="round" stroke-linejoin="round" x1="39.9" y1="58.5" x2="41.2" y2="60"/><line display="inline" fill="none" stroke="#000000" stroke-width="3" stroke-linecap="round" stroke-linejoin="round" x1="59.4" y1="59.2" x2="40.6" y2="42.8"/><path display="inline" fill="#000000" stroke="#000000" stroke-width="3" stroke-linecap="round" stroke-linejoin="round" stroke-miterlimit="10" d="   M50,62c1.7,0,3.3-0.5,4.5-1.4c0,0-0.4-2.6,0.9-4.1l0,0c1.5-1.4,2.4-3.4,2.4-5.6c0-4.3-3.5-7.8-7.8-7.8s-7.8,3.5-7.8,7.8   c0,2.2,0.9,4.2,2.4,5.6l0,0c1.3,1.5,0.9,4.1,0.9,4.1C46.7,61.5,48.3,62,50,62z"/><path display="inline" fill="none" stroke="#000000" stroke-width="3" stroke-linecap="round" stroke-linejoin="round" stroke-miterlimit="10" d="   M55.4,65.4C53.9,66.4,52,67,50,67c-2.1,0-4-0.7-5.6-1.8"/><circle display="inline" cx="47.5" cy="53" r="2.5"/><circle display="inline" cx="52.5" cy="53" r="2.5"/><line display="inline" fill="none" stroke="#000000" stroke-width="3" stroke-linecap="round" stroke-linejoin="round" stroke-miterlimit="10" x1="50" y1="54.5" x2="50" y2="56.5"/><line display="inline" fill="none" stroke="#000000" stroke-width="3" stroke-linecap="round" stroke-linejoin="round" x1="58.8" y1="60" x2="60.1" y2="58.5"/><line display="inline" fill="none" stroke="#000000" stroke-width="3" stroke-linecap="round" stroke-linejoin="round" x1="39.9" y1="43.5" x2="41.2" y2="42"/></g><g display="none"><line display="inline" fill="none" stroke="#000000" stroke-width="3" stroke-linecap="round" stroke-linejoin="round" x1="59.4" y1="43.3" x2="40.6" y2="59.7"/><line display="inline" fill="none" stroke="#000000" stroke-width="3" stroke-linecap="round" stroke-linejoin="round" x1="58.8" y1="42.5" x2="60.1" y2="44"/><line display="inline" fill="none" stroke="#000000" stroke-width="3" stroke-linecap="round" stroke-linejoin="round" x1="39.9" y1="58.9" x2="41.2" y2="60.5"/><line display="inline" fill="none" stroke="#000000" stroke-width="3" stroke-linecap="round" stroke-linejoin="round" x1="59.4" y1="59.7" x2="40.6" y2="43.3"/><path display="inline" fill="#000000" stroke="#000000" stroke-width="3" stroke-linecap="round" stroke-linejoin="round" stroke-miterlimit="10" d="   M54.5,61c0,0-0.4-2.6,0.9-4.1l0,0c1.5-1.4,2.4-3.4,2.4-5.6c0-4.3-3.5-7.8-7.8-7.8s-7.8,3.5-7.8,7.8c0,2.2,0.9,4.2,2.4,5.6l0,0   c1.3,1.5,0.9,4.1,0.9,4.1"/><path display="inline" fill="none" stroke="#000000" stroke-width="3" stroke-linecap="round" stroke-linejoin="round" stroke-miterlimit="10" d="   M55.4,65.8c-1.5,1-3.4,1.6-5.4,1.6c-2.1,0-4-0.7-5.6-1.8"/><circle display="inline" cx="47.5" cy="53.5" r="2.5"/><circle display="inline" cx="52.5" cy="53.5" r="2.5"/><line display="inline" fill="none" stroke="#000000" stroke-width="3" stroke-linecap="round" stroke-linejoin="round" stroke-miterlimit="10" x1="50" y1="55" x2="50" y2="57"/><line display="inline" fill="none" stroke="#000000" stroke-width="3" stroke-linecap="round" stroke-linejoin="round" x1="58.8" y1="60.5" x2="60.1" y2="58.9"/><line display="inline" fill="none" stroke="#000000" stroke-width="3" stroke-linecap="round" stroke-linejoin="round" x1="39.9" y1="44" x2="41.2" y2="42.5"/><circle display="inline" cx="50" cy="62.5" r="1.5"/><circle display="inline" cx="47.5" cy="62.1" r="1.5"/><circle display="inline" cx="52.5" cy="62.1" r="1.5"/></g><g display="none"><path display="inline" fill="none" stroke="#000000" stroke-width="3" stroke-linecap="round" stroke-linejoin="round" d="M50,71   c-7-6.2-14-12.7-14-20c0-5.9,3.3-8,6.9-8c3.6,0,7.1,4.8,7.1,4.8s3.5-4.8,7.1-4.8c3.5,0,6.9,2.2,6.9,8C64,58.3,57,64.8,50,71z"/></g><g display="none"><circle display="inline" fill="none" stroke="#000000" stroke-width="3" stroke-miterlimit="10" cx="50" cy="55" r="12"/></g><g display="none"><rect x="41.5" y="46.5" transform="matrix(-0.7071 0.7071 -0.7071 -0.7071 124.2462 58.5355)" display="inline" fill="none" stroke="#000000" stroke-width="3" stroke-linecap="round" stroke-linejoin="round" stroke-miterlimit="10" width="17" height="17"/></g><g display="none"><g display="inline"><circle fill="none" stroke="#000000" stroke-width="3" stroke-linecap="round" stroke-linejoin="round" stroke-dasharray="0,6.0084" cx="50" cy="55" r="22"/></g><circle display="inline" fill="none" stroke="#000000" stroke-width="3" cx="50" cy="55" r="27"/></g><g display="none"><path display="inline" d="M50.1,77c0-0.8,0.6-1.5,1.4-1.6l0,0c0.8-0.1,1.5,0.6,1.6,1.4l0,0c0.1,0.8-0.6,1.5-1.4,1.6l0,0   c0,0-0.1,0-0.1,0l0,0C50.8,78.4,50.1,77.8,50.1,77z M45.3,78c-0.8-0.2-1.3-1-1.2-1.8l0,0c0.2-0.8,1-1.3,1.8-1.2l0,0   c0.8,0.2,1.3,1,1.2,1.8l0,0c-0.1,0.7-0.8,1.2-1.5,1.2l0,0C45.5,78.1,45.4,78,45.3,78z M56,76.2c-0.3-0.8,0.1-1.6,0.9-1.9l0,0   c0.8-0.3,1.6,0.1,1.9,0.9l0,0c0.3,0.8-0.1,1.6-0.9,1.9l0,0c-0.2,0.1-0.3,0.1-0.5,0.1l0,0C56.8,77.2,56.2,76.8,56,76.2z M39.3,75.9   c-0.7-0.4-1-1.3-0.6-2l0,0c0.4-0.7,1.3-1,2-0.6l0,0c0.7,0.4,1,1.3,0.6,2l0,0c-0.3,0.5-0.8,0.8-1.3,0.8l0,0   C39.7,76.1,39.5,76,39.3,75.9z M61.5,73.8c-0.5-0.7-0.3-1.6,0.3-2.1l0,0c0.7-0.5,1.6-0.3,2.1,0.3l0,0c0.5,0.7,0.3,1.6-0.4,2.1l0,0   l0,0l0,0c-0.3,0.2-0.6,0.3-0.9,0.3l0,0C62.3,74.4,61.8,74.2,61.5,73.8z M34,72.2c-0.6-0.6-0.6-1.5-0.1-2.1l0,0   c0.6-0.6,1.5-0.6,2.1-0.1l0,0c0.6,0.6,0.6,1.5,0.1,2.1l0,0c-0.3,0.3-0.7,0.5-1.1,0.5l0,0C34.7,72.6,34.3,72.5,34,72.2z M66.2,70   c-0.7-0.5-0.8-1.5-0.2-2.1h0c0.5-0.6,1.5-0.8,2.1-0.2l0,0c0.6,0.5,0.7,1.5,0.2,2.1l0,0l0,0l0,0c-0.3,0.4-0.7,0.5-1.2,0.5l0,0   C66.8,70.3,66.4,70.2,66.2,70z M30,67.3c-0.4-0.7-0.2-1.6,0.5-2.1l0,0c0.7-0.4,1.6-0.2,2.1,0.5l0,0c0.4,0.7,0.2,1.6-0.5,2.1l0,0   c-0.2,0.1-0.5,0.2-0.8,0.2l0,0C30.7,68,30.2,67.8,30,67.3z M69.6,65.1c-0.8-0.3-1.1-1.2-0.8-2l0,0c0.3-0.8,1.2-1.1,2-0.8l0,0   c0.8,0.3,1.1,1.2,0.8,2l0,0l0,0l0,0c-0.2,0.6-0.8,0.9-1.4,0.9l0,0C70,65.2,69.8,65.2,69.6,65.1z M27.4,61.4c-0.2-0.8,0.2-1.6,1-1.8   l0,0c0.8-0.2,1.6,0.2,1.9,1l0,0c0.2,0.8-0.2,1.6-1,1.9l0,0c-0.1,0-0.3,0.1-0.4,0.1l0,0C28.2,62.5,27.6,62.1,27.4,61.4z M71.6,59.4   c-0.8-0.1-1.4-0.9-1.3-1.7l0,0c0.1-0.8,0.9-1.4,1.7-1.3l0,0c0.8,0.1,1.4,0.9,1.3,1.7l0,0c-0.1,0.8-0.8,1.3-1.5,1.3l0,0   C71.7,59.5,71.7,59.4,71.6,59.4z M26.5,55.1C26.5,55.1,26.5,55.1,26.5,55.1L26.5,55.1C26.5,55,26.5,55,26.5,55.1L26.5,55.1   L26.5,55.1L26.5,55.1c0-0.9,0.7-1.6,1.5-1.6l0,0c0.8,0,1.5,0.7,1.5,1.5l0,0c0,0,0,0,0,0l0,0c0,0,0,0,0,0v0c0,0.8-0.7,1.5-1.5,1.5   l0,0C27.2,56.6,26.5,55.9,26.5,55.1z M26.5,55.1L26.5,55.1L26.5,55.1L26.5,55.1L26.5,55.1L26.5,55.1z M70.3,52.2   c-0.1-0.8,0.5-1.6,1.3-1.7l0,0c0.8-0.1,1.6,0.5,1.7,1.3l0,0l0,0l0,0c0.1,0.8-0.5,1.6-1.3,1.7l0,0c-0.1,0-0.1,0-0.2,0l0,0   C71,53.5,70.4,52.9,70.3,52.2z M28.4,50.5c-0.8-0.2-1.3-1-1-1.9l0,0c0,0,0,0,0,0l0,0c0.2-0.8,1-1.3,1.8-1l0,0   c0.8,0.2,1.3,1.1,1,1.9l0,0c-0.2,0.7-0.8,1.1-1.4,1.1l0,0C28.7,50.6,28.5,50.5,28.4,50.5z M68.8,46.8L68.8,46.8   c-0.3-0.8,0-1.6,0.8-2l0,0c0.8-0.3,1.7,0,2,0.8l0,0c0.3,0.8,0,1.6-0.8,2l0,0c-0.2,0.1-0.4,0.1-0.6,0.1l0,0   C69.6,47.7,69,47.4,68.8,46.8z M30.4,44.8c-0.7-0.4-0.9-1.3-0.5-2.1l0,0c0,0,0,0,0,0l0,0c0.4-0.7,1.4-0.9,2.1-0.5l0,0   c0.7,0.4,0.9,1.4,0.5,2.1l0,0c-0.3,0.5-0.8,0.7-1.3,0.7l0,0C30.9,45.1,30.7,45,30.4,44.8z M65.9,42c-0.5-0.6-0.4-1.6,0.2-2.1l0,0   c0.6-0.5,1.6-0.4,2.1,0.2l0,0c0.5,0.6,0.4,1.6-0.2,2.1l0,0c-0.3,0.2-0.6,0.3-1,0.3l0,0C66.6,42.6,66.2,42.4,65.9,42z M33.9,39.9   c-0.6-0.6-0.5-1.5,0.1-2.1l0,0c0.6-0.6,1.6-0.5,2.1,0.1l0,0c0.6,0.6,0.5,1.6-0.1,2.1l0,0c-0.3,0.3-0.7,0.4-1,0.4l0,0   C34.6,40.4,34.2,40.3,33.9,39.9z M61.8,38.2c-0.7-0.5-0.8-1.4-0.4-2.1l0,0c0.5-0.7,1.4-0.8,2.1-0.4l0,0c0.7,0.5,0.8,1.4,0.4,2.1   l0,0c-0.3,0.4-0.8,0.6-1.2,0.6l0,0C62.4,38.5,62.1,38.4,61.8,38.2z M38.5,36.2c-0.4-0.7-0.1-1.6,0.6-2l0,0c0.7-0.4,1.6-0.1,2,0.6   l0,0c0.4,0.7,0.1,1.6-0.6,2l0,0c-0.2,0.1-0.5,0.2-0.7,0.2l0,0C39.3,37,38.8,36.7,38.5,36.2z M56.8,35.7c-0.8-0.3-1.2-1.1-0.9-1.9   l0,0c0.3-0.8,1.1-1.2,1.9-0.9l0,0c0.8,0.3,1.2,1.1,0.9,1.9l0,0c-0.2,0.6-0.8,1-1.4,1l0,0C57.2,35.8,57,35.7,56.8,35.7z M44,33.8   c-0.2-0.8,0.3-1.6,1.2-1.8l0,0c0.8-0.2,1.6,0.4,1.8,1.2l0,0c0.2,0.8-0.4,1.6-1.2,1.8l0,0c-0.1,0-0.2,0-0.3,0l0,0   C44.8,35,44.2,34.5,44,33.8z M51.4,34.5L51.4,34.5c-0.8-0.1-1.5-0.8-1.4-1.6l0,0c0-0.8,0.8-1.4,1.6-1.4l0,0c0,0,0,0,0,0l0,0   c0.8,0,1.5,0.8,1.4,1.6l0,0C52.9,33.9,52.3,34.5,51.4,34.5L51.4,34.5C51.4,34.5,51.4,34.5,51.4,34.5z"/><path display="inline" d="M50,83.5c-15.7,0-28.5-12.8-28.5-28.5S34.3,26.5,50,26.5S78.5,39.3,78.5,55S65.7,83.5,50,83.5z M50,29.5   c-14.1,0-25.5,11.4-25.5,25.5S35.9,80.5,50,80.5S75.5,69.1,75.5,55S64.1,29.5,50,29.5z"/></g><g display="none"><g display="inline"><path fill="none" stroke="#000000" stroke-width="3" stroke-linecap="round" stroke-linejoin="round" d="M48.3,83    c0.9,0.1,1.9,0.2,2.8,0.2c14.9,0,27-12.1,27-27c0-1-0.1-2.1-0.2-3.1"/></g><g display="inline"><path fill="none" stroke="#000000" stroke-width="3" stroke-linecap="round" stroke-linejoin="round" d="M54.4,89.1    c0.9,0.1,1.9,0.2,2.8,0.2c14.9,0,27-12.1,27-27c0-1-0.1-2.1-0.2-3.1"/></g><g display="inline"><circle fill="none" stroke="#000000" stroke-width="3" stroke-linecap="round" stroke-linejoin="round" stroke-dasharray="0,6.0084" cx="45" cy="50" r="22"/></g><circle display="inline" fill="none" stroke="#000000" stroke-width="3" cx="45" cy="50" r="27"/></g><g display="none"><g display="inline"><path d="M51.1,84.6c-1,0-2-0.1-3-0.2c-0.8-0.1-1.4-0.8-1.3-1.6c0.1-0.8,0.8-1.4,1.6-1.3c0.9,0.1,1.8,0.1,2.7,0.1    c14,0,25.5-11.4,25.5-25.5c0-1-0.1-2-0.2-2.9c-0.1-0.8,0.5-1.6,1.3-1.7c0.8-0.1,1.6,0.5,1.7,1.3c0.1,1.1,0.2,2.2,0.2,3.3    C79.6,71.8,66.8,84.6,51.1,84.6z"/></g><g display="inline"><path d="M57.3,90.7c-1,0-2-0.1-3-0.2c-0.8-0.1-1.4-0.8-1.3-1.7s0.8-1.4,1.7-1.3c0.9,0.1,1.8,0.1,2.7,0.1c14,0,25.5-11.4,25.5-25.5    c0-1-0.1-1.9-0.2-2.9c-0.1-0.8,0.5-1.6,1.3-1.7c0.8-0.1,1.6,0.5,1.7,1.3c0.1,1.1,0.2,2.2,0.2,3.3C85.7,78,73,90.7,57.3,90.7z"/></g><path display="inline" d="M45.1,72c-0.1-0.8,0.6-1.5,1.4-1.6l0,0c0.8-0.1,1.5,0.6,1.6,1.4l0,0c0,0.8-0.6,1.5-1.4,1.6l0,0   c0,0-0.1,0-0.1,0l0,0C45.8,73.4,45.1,72.8,45.1,72z M40.3,73c-0.8-0.2-1.3-1-1.2-1.8l0,0c0.2-0.8,1-1.3,1.8-1.2l0,0   c0.8,0.2,1.3,1,1.2,1.8l0,0c-0.1,0.7-0.8,1.2-1.5,1.2l0,0C40.5,73.1,40.4,73,40.3,73z M51,71.2c-0.3-0.8,0.1-1.6,0.9-1.9l0,0   c0.8-0.3,1.6,0.1,1.9,0.9l0,0c0.3,0.8-0.1,1.6-0.9,1.9l0,0c-0.2,0.1-0.3,0.1-0.5,0.1l0,0C51.8,72.2,51.2,71.8,51,71.2z M34.3,70.9   c-0.7-0.4-1-1.3-0.6-2l0,0c0.4-0.7,1.3-1,2-0.6l0,0c0.7,0.4,1,1.3,0.6,2l0,0c-0.3,0.5-0.8,0.8-1.3,0.8l0,0   C34.7,71.1,34.5,71,34.3,70.9z M56.5,68.8c-0.5-0.7-0.3-1.6,0.4-2.1h0c0.7-0.5,1.6-0.3,2.1,0.3l0,0c0.5,0.7,0.3,1.6-0.4,2.1l0,0   l0,0l0,0c-0.3,0.2-0.6,0.3-0.9,0.3l0,0C57.3,69.4,56.8,69.2,56.5,68.8z M29,67.2c-0.6-0.6-0.6-1.5-0.1-2.1l0,0   c0.6-0.6,1.5-0.6,2.1-0.1l0,0c0.6,0.6,0.6,1.5,0.1,2.1l0,0c-0.3,0.3-0.7,0.5-1.1,0.5l0,0C29.7,67.6,29.3,67.5,29,67.2z M61.2,65   c-0.7-0.5-0.8-1.5-0.2-2.1h0c0.5-0.6,1.5-0.8,2.1-0.2l0,0c0.6,0.5,0.7,1.5,0.2,2.1l0,0c0,0,0,0,0,0l0,0c-0.3,0.4-0.7,0.6-1.2,0.6   l0,0C61.8,65.3,61.4,65.2,61.2,65z M25,62.3c-0.4-0.7-0.2-1.6,0.5-2.1l0,0c0.7-0.4,1.6-0.2,2.1,0.5l0,0c0.4,0.7,0.2,1.6-0.5,2.1   l0,0c-0.2,0.1-0.5,0.2-0.8,0.2l0,0C25.7,63,25.2,62.8,25,62.3z M64.6,60.1c-0.8-0.3-1.1-1.2-0.8-2l0,0c0.3-0.8,1.2-1.1,2-0.8l0,0   c0.8,0.3,1.1,1.2,0.8,2l0,0l0,0l0,0c-0.2,0.6-0.8,0.9-1.4,0.9l0,0C65,60.2,64.8,60.2,64.6,60.1z M22.4,56.4c-0.2-0.8,0.2-1.6,1-1.8   l0,0c0.8-0.2,1.6,0.2,1.9,1l0,0c0.2,0.8-0.2,1.6-1,1.9l0,0c-0.1,0-0.3,0.1-0.4,0.1l0,0C23.2,57.5,22.6,57.1,22.4,56.4z M66.6,54.4   c-0.8-0.1-1.4-0.9-1.3-1.7l0,0c0.1-0.8,0.9-1.4,1.7-1.3l0,0c0.8,0.1,1.4,0.9,1.3,1.7l0,0c-0.1,0.8-0.8,1.3-1.5,1.3l0,0   C66.7,54.5,66.7,54.4,66.6,54.4z M21.5,50.1C21.5,50.1,21.5,50.1,21.5,50.1L21.5,50.1C21.5,50,21.5,50,21.5,50.1L21.5,50.1   c0-0.9,0.7-1.6,1.5-1.6l0,0c0.8,0,1.5,0.7,1.5,1.5l0,0c0,0,0,0,0,0l0,0c0,0,0,0,0,0v0c0,0.8-0.7,1.5-1.5,1.5l0,0c0,0,0,0,0,0l0,0   C22.2,51.6,21.5,50.9,21.5,50.1z M21.5,50.1L21.5,50.1L21.5,50.1L21.5,50.1L21.5,50.1L21.5,50.1z M65.3,47.2L65.3,47.2   c-0.1-0.8,0.5-1.6,1.3-1.7l0,0c0.8-0.1,1.6,0.5,1.7,1.3l0,0c0.1,0.8-0.5,1.6-1.3,1.7l0,0c-0.1,0-0.1,0-0.2,0l0,0   C66,48.5,65.4,47.9,65.3,47.2z M23.4,45.5c-0.8-0.2-1.3-1-1-1.9l0,0c0.2-0.8,1.1-1.3,1.9-1l0,0c0.8,0.2,1.3,1.1,1,1.9l0,0   c-0.2,0.7-0.8,1.1-1.4,1.1l0,0C23.7,45.6,23.5,45.5,23.4,45.5z M63.8,41.8L63.8,41.8c-0.3-0.8,0-1.6,0.8-2l0,0c0.8-0.3,1.6,0,2,0.8   l0,0c0,0,0,0,0,0l0,0c0.3,0.8,0,1.6-0.8,2l0,0c-0.2,0.1-0.4,0.1-0.6,0.1l0,0C64.6,42.7,64,42.4,63.8,41.8z M25.4,39.8   c-0.7-0.4-0.9-1.3-0.5-2.1l0,0c0.4-0.7,1.4-0.9,2.1-0.5l0,0c0.7,0.4,0.9,1.4,0.5,2.1l0,0c-0.3,0.5-0.8,0.7-1.3,0.7l0,0   C25.9,40.1,25.7,40,25.4,39.8z M60.9,37L60.9,37c-0.5-0.6-0.4-1.6,0.2-2.1l0,0c0.7-0.5,1.6-0.4,2.1,0.2l0,0   c0.5,0.6,0.4,1.6-0.2,2.1l0,0c-0.3,0.2-0.6,0.3-1,0.3l0,0C61.6,37.6,61.2,37.4,60.9,37z M28.9,34.9c-0.6-0.6-0.5-1.5,0.1-2.1l0,0   c0.6-0.6,1.6-0.5,2.1,0.1l0,0c0.6,0.6,0.5,1.6-0.1,2.1l0,0c-0.3,0.3-0.7,0.4-1,0.4l0,0C29.6,35.4,29.2,35.3,28.9,34.9z M56.8,33.2   c-0.7-0.5-0.8-1.4-0.4-2.1l0,0c0.5-0.7,1.4-0.8,2.1-0.4l0,0c0.7,0.5,0.8,1.4,0.4,2.1l0,0c-0.3,0.4-0.8,0.6-1.2,0.6l0,0   C57.4,33.5,57.1,33.4,56.8,33.2z M33.5,31.2c-0.4-0.7-0.1-1.6,0.6-2l0,0c0.7-0.4,1.6-0.1,2,0.6l0,0c0.4,0.7,0.1,1.6-0.6,2h0   c-0.2,0.1-0.5,0.2-0.7,0.2l0,0C34.3,32,33.8,31.7,33.5,31.2z M51.8,30.7L51.8,30.7c-0.8-0.3-1.2-1.1-0.9-1.9l0,0   c0.3-0.8,1.1-1.2,1.9-0.9l0,0c0.8,0.3,1.2,1.1,0.9,1.9l0,0c-0.2,0.6-0.8,1-1.4,1l0,0C52.2,30.8,52,30.7,51.8,30.7z M39,28.8   c-0.2-0.8,0.3-1.6,1.2-1.8l0,0c0.8-0.2,1.6,0.4,1.8,1.2l0,0c0.2,0.8-0.4,1.6-1.2,1.8l0,0c-0.1,0-0.2,0-0.3,0l0,0   C39.8,30,39.2,29.5,39,28.8z M46.4,29.5L46.4,29.5c-0.8-0.1-1.5-0.8-1.4-1.6l0,0c0.1-0.8,0.8-1.4,1.6-1.4l0,0   c0.8,0.1,1.5,0.8,1.4,1.6l0,0c-0.1,0.8-0.7,1.4-1.5,1.4l0,0C46.4,29.5,46.4,29.5,46.4,29.5z"/><path display="inline" d="M45,78.5c-15.7,0-28.5-12.8-28.5-28.5S29.3,21.5,45,21.5S73.5,34.3,73.5,50S60.7,78.5,45,78.5z M45,24.5   c-14.1,0-25.5,11.4-25.5,25.5S30.9,75.5,45,75.5S70.5,64.1,70.5,50S59.1,24.5,45,24.5z"/></g><g display="none"><rect x="19.5" y="41.2" display="inline" stroke="#000000" stroke-width="3" stroke-linecap="round" stroke-linejoin="round" width="61" height="27.5"/><circle display="inline" fill="#000000" cx="50" cy="55" r="20.5"/><rect x="11.5" y="33.2" display="inline" fill="none" stroke="#000000" stroke-width="3" stroke-linecap="round" stroke-linejoin="round" width="77" height="43.5"/></g><g display="none"><path display="inline" d="M88.5,78.2h-77c-0.8,0-1.5-0.7-1.5-1.5V33.2c0-0.8,0.7-1.5,1.5-1.5h77c0.8,0,1.5,0.7,1.5,1.5v43.5   C90,77.6,89.3,78.2,88.5,78.2z M13,75.2h74V34.8H13V75.2z"/><g display="inline"><path d="M29.5,55c0-6.1,2.6-11.5,6.8-15.2H19.5c-0.8,0-1.5,0.7-1.5,1.5v27.5c0,0.8,0.7,1.5,1.5,1.5h16.8    C32.1,66.5,29.5,61.1,29.5,55z"/><path d="M80.5,39.8H63.7c4.2,3.8,6.8,9.2,6.8,15.2s-2.6,11.5-6.8,15.2h16.8c0.8,0,1.5-0.7,1.5-1.5V41.2    C82,40.4,81.3,39.8,80.5,39.8z"/></g></g><g display="none"><polyline display="inline" fill="none" stroke="#000000" stroke-width="3" stroke-linecap="round" stroke-linejoin="round" points="   93.5,38.2 93.5,81.8 16.5,81.8  "/><polyline display="inline" fill="none" stroke="#000000" stroke-width="3" stroke-linecap="round" stroke-linejoin="round" points="   88.5,33.2 88.5,76.8 11.5,76.8  "/><rect x="14.5" y="36.2" display="inline" stroke="#000000" stroke-width="3" stroke-linecap="round" stroke-linejoin="round" width="61" height="27.5"/><circle display="inline" fill="#000000" cx="45" cy="50" r="20.5"/><rect x="6.5" y="28.2" display="inline" fill="none" stroke="#000000" stroke-width="3" stroke-linecap="round" stroke-linejoin="round" width="77" height="43.5"/></g><g display="none"><path display="inline" d="M93.5,83.2h-77c-0.8,0-1.5-0.7-1.5-1.5s0.7-1.5,1.5-1.5H92v-42c0-0.8,0.7-1.5,1.5-1.5s1.5,0.7,1.5,1.5   v43.5C95,82.6,94.3,83.2,93.5,83.2z"/><path display="inline" d="M88.5,78.2h-77c-0.8,0-1.5-0.7-1.5-1.5s0.7-1.5,1.5-1.5H87v-42c0-0.8,0.7-1.5,1.5-1.5s1.5,0.7,1.5,1.5   v43.5C90,77.6,89.3,78.2,88.5,78.2z"/><path display="inline" d="M83.5,73.2h-77c-0.8,0-1.5-0.7-1.5-1.5V28.2c0-0.8,0.7-1.5,1.5-1.5h77c0.8,0,1.5,0.7,1.5,1.5v43.5   C85,72.6,84.3,73.2,83.5,73.2z M8,70.2h74V29.8H8V70.2z"/><g display="inline"><path d="M24.5,50c0-6.1,2.6-11.5,6.8-15.2H14.5c-0.8,0-1.5,0.7-1.5,1.5v27.5c0,0.8,0.7,1.5,1.5,1.5h16.8    C27.1,61.5,24.5,56.1,24.5,50z"/><path d="M75.5,34.8H58.7c4.2,3.8,6.8,9.2,6.8,15.2s-2.6,11.5-6.8,15.2h16.8c0.8,0,1.5-0.7,1.5-1.5V36.2    C77,35.4,76.3,34.8,75.5,34.8z"/></g></g><g display="none"><polyline display="inline" fill="none" stroke="#000000" stroke-width="3" stroke-linecap="round" stroke-linejoin="round" points="   54.1,25.9 59,19.4 50,20.4 41,19.4 45.9,25.9  "/><path display="inline" fill="none" stroke="#000000" stroke-width="3" d="M29.8,64.1c0-13,9-33.6,20.2-33.6s20.2,20.6,20.2,33.6   s-9,13.4-20.2,13.4S29.8,77.1,29.8,64.1z"/></g><g display="none"><path display="inline" d="M54.1,27.4c-0.3,0-0.6-0.1-0.9-0.3c-0.7-0.5-0.8-1.4-0.3-2.1l2.8-3.7l-5.5,0.6c-0.1,0-0.2,0-0.3,0   l-5.5-0.6l2.8,3.7c0.5,0.7,0.4,1.6-0.3,2.1c-0.7,0.5-1.6,0.4-2.1-0.3l-4.9-6.5c-0.4-0.5-0.4-1.1-0.1-1.6c0.3-0.5,0.9-0.8,1.5-0.8   l8.8,1l8.8-1c0.6-0.1,1.2,0.2,1.5,0.8s0.3,1.2-0.1,1.6l-4.9,6.5C55,27.2,54.5,27.4,54.1,27.4z"/><path display="inline" d="M50,79c-10.2,0-21.7,0-21.7-14.9C28.3,50.2,38,29,50,29s21.7,21.2,21.7,35.1C71.7,79,60.2,79,50,79z    M50,32c-4.4,0-9.1,4.1-12.9,11.1c-3.5,6.5-5.7,14.7-5.7,20.9C31.3,75.4,38.4,76,50,76s18.7-0.6,18.7-11.9c0-6.3-2.2-14.5-5.7-20.9   C59.1,36.1,54.4,32,50,32z"/></g><g display="none"><line display="inline" fill="none" stroke="#000000" stroke-width="3" stroke-linecap="round" stroke-linejoin="round" x1="30" y1="36" x2="30" y2="74"/><line display="inline" fill="none" stroke="#000000" stroke-width="3" stroke-linecap="round" stroke-linejoin="round" x1="20" y1="36" x2="20" y2="74"/><line display="inline" fill="none" stroke="#000000" stroke-width="3" stroke-linecap="round" stroke-linejoin="round" x1="70" y1="36" x2="70" y2="74"/><line display="inline" fill="none" stroke="#000000" stroke-width="3" stroke-linecap="round" stroke-linejoin="round" x1="80" y1="36" x2="80" y2="74"/><polygon display="inline" fill="none" stroke="#000000" stroke-width="3" stroke-linecap="round" stroke-linejoin="round" points="   16.5,31 50,11 83.5,31  "/><line display="inline" fill="none" stroke="#000000" stroke-width="3" stroke-linecap="round" stroke-linejoin="round" x1="16.5" y1="79" x2="83.5" y2="79"/><line display="inline" fill="none" stroke="#000000" stroke-width="3" stroke-linecap="round" stroke-linejoin="round" x1="11.5" y1="84" x2="88.5" y2="84"/><line display="inline" fill="none" stroke="#000000" stroke-width="3" stroke-linecap="round" stroke-linejoin="round" x1="6.5" y1="89" x2="93.5" y2="89"/></g><g display="none"><path display="inline" d="M30,75.5c-0.8,0-1.5-0.7-1.5-1.5V36c0-0.8,0.7-1.5,1.5-1.5s1.5,0.7,1.5,1.5v38   C31.5,74.8,30.8,75.5,30,75.5z"/><path display="inline" d="M20,75.5c-0.8,0-1.5-0.7-1.5-1.5V36c0-0.8,0.7-1.5,1.5-1.5s1.5,0.7,1.5,1.5v38   C21.5,74.8,20.8,75.5,20,75.5z"/><path display="inline" d="M70,75.5c-0.8,0-1.5-0.7-1.5-1.5V36c0-0.8,0.7-1.5,1.5-1.5s1.5,0.7,1.5,1.5v38   C71.5,74.8,70.8,75.5,70,75.5z"/><path display="inline" d="M80,75.5c-0.8,0-1.5-0.7-1.5-1.5V36c0-0.8,0.7-1.5,1.5-1.5s1.5,0.7,1.5,1.5v38   C81.5,74.8,80.8,75.5,80,75.5z"/><path display="inline" d="M83.5,32.5C83.5,32.5,83.5,32.5,83.5,32.5h-67c-0.7,0-1.3-0.5-1.4-1.1c-0.2-0.7,0.1-1.3,0.7-1.7l33.5-20   c0.5-0.3,1.1-0.3,1.5,0l33.4,19.9c0.5,0.2,0.9,0.8,0.9,1.4C85,31.8,84.3,32.5,83.5,32.5z M21.9,29.5h56.1L50,12.7L21.9,29.5z"/><path display="inline" d="M83.5,80.5h-67c-0.8,0-1.5-0.7-1.5-1.5s0.7-1.5,1.5-1.5h67c0.8,0,1.5,0.7,1.5,1.5S84.3,80.5,83.5,80.5z"/><path display="inline" d="M88.5,85.5h-77c-0.8,0-1.5-0.7-1.5-1.5s0.7-1.5,1.5-1.5h77c0.8,0,1.5,0.7,1.5,1.5S89.3,85.5,88.5,85.5z"/><path display="inline" d="M93.5,90.5h-87C5.7,90.5,5,89.8,5,89s0.7-1.5,1.5-1.5h87c0.8,0,1.5,0.7,1.5,1.5S94.3,90.5,93.5,90.5z"/></g><g display="none"><line display="inline" fill="none" stroke="#000000" stroke-width="3" stroke-linecap="round" stroke-linejoin="round" x1="30" y1="36" x2="30" y2="74"/><line display="inline" fill="none" stroke="#000000" stroke-width="3" stroke-linecap="round" stroke-linejoin="round" x1="20" y1="36" x2="20" y2="74"/><line display="inline" fill="none" stroke="#000000" stroke-width="3" stroke-linecap="round" stroke-linejoin="round" x1="50" y1="36" x2="50" y2="74"/><line display="inline" fill="none" stroke="#000000" stroke-width="3" stroke-linecap="round" stroke-linejoin="round" x1="40" y1="36" x2="40" y2="74"/><line display="inline" fill="none" stroke="#000000" stroke-width="3" stroke-linecap="round" stroke-linejoin="round" x1="70" y1="36" x2="70" y2="74"/><line display="inline" fill="none" stroke="#000000" stroke-width="3" stroke-linecap="round" stroke-linejoin="round" x1="80" y1="36" x2="80" y2="74"/><line display="inline" fill="none" stroke="#000000" stroke-width="3" stroke-linecap="round" stroke-linejoin="round" x1="60" y1="36" x2="60" y2="74"/><polygon display="inline" fill="none" stroke="#000000" stroke-width="3" stroke-linecap="round" stroke-linejoin="round" points="   16.5,31 50,11 83.5,31  "/><line display="inline" fill="none" stroke="#000000" stroke-width="3" stroke-linecap="round" stroke-linejoin="round" x1="16.5" y1="79" x2="83.5" y2="79"/><line display="inline" fill="none" stroke="#000000" stroke-width="3" stroke-linecap="round" stroke-linejoin="round" x1="11.5" y1="84" x2="88.5" y2="84"/><line display="inline" fill="none" stroke="#000000" stroke-width="3" stroke-linecap="round" stroke-linejoin="round" x1="6.5" y1="89" x2="93.5" y2="89"/></g><text x="0" y="115" fill="#000000" font-size="5px" font-weight="bold" font-family="'Helvetica Neue', Helvetica, Arial-Unicode, Arial, Sans-serif">Created by Till Teenck</text><text x="0" y="120" fill="#000000" font-size="5px" font-weight="bold" font-family="'Helvetica Neue', Helvetica, Arial-Unicode, Arial, Sans-serif">from the Noun Project</text></svg>